<?xml version="1.0" encoding="UTF-8"?>
<svg xmlns="http://www.w3.org/2000/svg" xmlns:xlink="http://www.w3.org/1999/xlink" width="2400" height="2400" viewBox="0 0 2400 2400">

<path fill-rule="evenodd" fill="rgb(83.984375%, 100%, 58.006287%)" fill-opacity="1" d="M 483.804688 1792.921875 C 511.023438 1762.113281 535.457031 1728.695312 540.714844 1696.488281 C 549.871094 1640.40625 507.460938 1628.105469 464.730469 1670.839844 L 450.234375 1685.332031 C 484.566406 1482.964844 382.171875 1445.941406 348.894531 1591.230469 C 347.007812 1599.460938 345.605469 1607.132812 344.625 1614.386719 C 338.023438 1663.265625 350.648438 1692.96875 364.554688 1743.957031 C 330.148438 1721.976562 306.414062 1718.710938 293.609375 1725.675781 C 275.421875 1735.5625 279.289062 1766.085938 305.929688 1792.921875 L 483.804688 1792.921875 "/>
<path fill-rule="evenodd" fill="rgb(66.209412%, 82.03125%, 40.771484%)" fill-opacity="1" d="M 433.804688 1792.921875 C 419.082031 1776.257812 405.867188 1758.1875 403.023438 1740.769531 C 398.074219 1710.4375 421.011719 1703.785156 444.117188 1726.894531 L 451.960938 1734.734375 C 433.394531 1625.289062 488.769531 1605.265625 506.765625 1683.839844 C 507.785156 1688.289062 508.546875 1692.441406 509.074219 1696.363281 C 512.644531 1722.800781 505.816406 1738.863281 498.296875 1766.441406 C 516.90625 1754.550781 529.738281 1752.785156 536.664062 1756.550781 C 546.503906 1761.898438 544.410156 1778.40625 530.003906 1792.921875 L 433.804688 1792.921875 "/>
<path fill-rule="evenodd" fill="rgb(83.984375%, 100%, 58.006287%)" fill-opacity="1" d="M 2020.988281 1778.160156 C 2065.621094 1727.652344 2105.679688 1672.859375 2114.300781 1620.054688 C 2129.308594 1528.101562 2059.78125 1507.9375 1989.71875 1577.996094 L 1965.949219 1601.765625 C 2022.238281 1269.960938 1854.351562 1209.261719 1799.789062 1447.472656 C 1796.699219 1460.964844 1794.398438 1473.550781 1792.789062 1485.441406 C 1781.96875 1565.582031 1802.660156 1614.28125 1825.460938 1697.886719 C 1769.050781 1661.84375 1730.140625 1656.492188 1709.148438 1667.90625 C 1679.328125 1684.121094 1685.671875 1734.167969 1729.351562 1778.160156 L 2020.988281 1778.160156 "/>
<path fill-rule="evenodd" fill="rgb(66.209412%, 82.03125%, 40.771484%)" fill-opacity="1" d="M 1939.011719 1778.160156 C 1914.871094 1750.84375 1893.210938 1721.210938 1888.539062 1692.65625 C 1880.421875 1642.925781 1918.03125 1632.019531 1955.921875 1669.90625 L 1968.769531 1682.761719 C 1938.328125 1503.316406 2029.128906 1470.484375 2058.640625 1599.316406 C 2060.308594 1606.613281 2061.550781 1613.421875 2062.421875 1619.851562 C 2068.28125 1663.195312 2057.078125 1689.53125 2044.75 1734.746094 C 2075.261719 1715.253906 2096.300781 1712.359375 2107.660156 1718.53125 C 2123.789062 1727.300781 2120.359375 1754.367188 2096.730469 1778.160156 L 1939.011719 1778.160156 "/>
<path fill-rule="nonzero" fill="rgb(87.889099%, 99.609375%, 100%)" fill-opacity="1" d="M 1891.671875 613.398438 C 1860.429688 578.609375 1820.480469 592.921875 1793.390625 624.589844 C 1770.578125 651.238281 1758.738281 683.621094 1749.050781 716.710938 C 1716.390625 827.261719 1658.21875 857.480469 1532.640625 846.101562 C 1495.800781 842.679688 1457.191406 834.46875 1420.648438 827.75 C 1371.648438 818.738281 1324.308594 806.300781 1275.839844 795.578125 C 1208.648438 780.730469 1102.550781 768.28125 1040.890625 804.089844 C 981.339844 839.898438 993.496094 902.578125 990.296875 961.101562 C 987.007812 1021.339844 955.066406 1031.828125 901.953125 1039.808594 C 871.988281 1044.308594 845.214844 1045.308594 815.589844 1053.691406 C 771.34375 1066.339844 713.671875 1093.941406 689.007812 1134.429688 C 674.332031 1158.980469 672.09375 1177.941406 683.175781 1204.25 C 689.300781 1218.808594 702.976562 1243.621094 703.542969 1258.660156 C 704.246094 1277.441406 685.3125 1288 671.964844 1298.109375 C 653.40625 1312.179688 630.507812 1332.421875 621.378906 1354.28125 C 604.261719 1395.289062 667.214844 1388.699219 689.664062 1389.28125 C 722.53125 1390.128906 735.558594 1398.171875 763.394531 1412.835938 C 796.859375 1430.464844 828.242188 1437.117188 865.429688 1426.4375 C 903.65625 1415.460938 943.574219 1382.121094 962.191406 1347.058594 C 975.183594 1322.601562 976.878906 1300.878906 973.664062 1273.890625 C 971.539062 1256.019531 968.105469 1229.269531 988.285156 1220.371094 C 1015.160156 1209.289062 1043.300781 1229.398438 1065.578125 1202.011719 C 1075.179688 1190.21875 1084.980469 1175.019531 1093.691406 1162.308594 C 1110.210938 1138.191406 1137.359375 1092.488281 1160.128906 1076.339844 C 1184.640625 1058.96875 1225.261719 1047.859375 1255.179688 1045.878906 C 1274.511719 1044.601562 1297.25 1044.609375 1316.71875 1044.980469 C 1342.710938 1045.480469 1359.890625 1047.21875 1385.230469 1053.101562 C 1604.199219 1103.929688 1760.289062 1098.398438 1861.941406 993.851562 C 1977.539062 874.949219 1969.171875 699.691406 1891.671875 613.398438 "/>
<path fill-rule="evenodd" fill="rgb(87.889099%, 99.609375%, 100%)" fill-opacity="1" d="M 1115.339844 735.828125 C 1104.578125 733.480469 1101.21875 731.441406 1091.53125 727.28125 C 1074.949219 720.179688 1068.601562 735.261719 1059.609375 746.558594 C 1049.871094 758.800781 1038.898438 760.761719 1023.660156 759.691406 C 1015.480469 759.109375 997.957031 756.691406 1007.21875 744.878906 C 1013.070312 737.410156 1019.449219 733.21875 1024.839844 724.140625 C 1033.601562 709.351562 1032.570312 699.910156 1046.621094 685.820312 C 1070.96875 661.390625 1130.351562 669.851562 1159.878906 682.558594 C 1184.359375 693.488281 1203.371094 715.351562 1169.710938 730.378906 C 1150.691406 738.871094 1135.75 739.910156 1115.339844 735.828125 "/>
<path fill-rule="evenodd" fill="rgb(87.889099%, 99.609375%, 100%)" fill-opacity="1" d="M 674.351562 1018.171875 C 686.539062 1016.339844 690.039062 1031.769531 688.328125 1039.058594 C 680.898438 1070.710938 623.40625 1107.511719 645.390625 1138.691406 C 653.066406 1149.589844 657.214844 1153.058594 655.480469 1168.101562 C 654.621094 1175.53125 649.371094 1196.011719 635.871094 1188.941406 C 630.722656 1186.238281 623.023438 1180.28125 618.121094 1176.859375 C 564.960938 1139.851562 554.769531 1036.121094 674.351562 1018.171875 "/>
<path fill-rule="evenodd" fill="rgb(87.889099%, 99.609375%, 100%)" fill-opacity="1" d="M 1653.03125 751.609375 C 1680.851562 761.851562 1683.839844 774.820312 1674.679688 785.640625 C 1662.980469 799.460938 1632.210938 807.199219 1607.371094 807.421875 C 1523.921875 808.160156 1590.738281 728.699219 1653.03125 751.609375 "/>
<path fill-rule="evenodd" fill="rgb(87.889099%, 99.609375%, 100%)" fill-opacity="1" d="M 850.441406 943.878906 C 829.914062 965.261719 816.828125 962.800781 810.585938 950.070312 C 802.617188 933.808594 807.859375 902.53125 817.613281 879.679688 C 850.394531 802.929688 896.40625 896 850.441406 943.878906 "/>
<path fill-rule="evenodd" fill="rgb(87.889099%, 99.609375%, 100%)" fill-opacity="1" d="M 1209.5 1086.308594 C 1260.03125 1068.519531 1279.140625 1083.140625 1278.851562 1108.761719 C 1278.480469 1141.480469 1244.550781 1187.699219 1210.210938 1216.621094 C 1094.851562 1313.789062 1096.359375 1126.160156 1209.5 1086.308594 "/>
<path fill-rule="evenodd" fill="rgb(99.609375%, 89.0625%, 78.514099%)" fill-opacity="1" d="M 1862.171875 1094.03125 L 1871.320312 1080.988281 L 1875.628906 1073.53125 L 1879.609375 1065.210938 L 1882.351562 1061.75 L 1886.429688 1058.128906 L 1890.128906 1059.050781 L 1892.300781 1060.371094 L 1895.269531 1056.878906 L 1900.148438 1056.320312 L 1904.730469 1060.960938 L 1908.738281 1064.539062 L 1910.140625 1067.96875 C 1910.140625 1067.96875 1910.101562 1074.378906 1910.121094 1075.5 C 1910.128906 1076.621094 1910.429688 1085.011719 1910.429688 1085.011719 L 1909.699219 1087.460938 L 1901.628906 1093.441406 L 1882.609375 1102.820312 L 1875.5 1110.789062 C 1865.511719 1107.511719 1862.691406 1104.558594 1862.171875 1094.03125 "/>
<path fill-rule="evenodd" fill="rgb(18.041992%, 32.151794%, 51.756287%)" fill-opacity="1" d="M 1716.210938 1159.351562 L 1783.640625 1145.609375 L 1807.480469 1160.539062 C 1832.351562 1184.179688 1807.230469 1187.550781 1777.261719 1194.011719 C 1752.058594 1199.441406 1719.75 1218.640625 1694.671875 1219.941406 C 1635.839844 1222.820312 1632.53125 1161.851562 1716.210938 1159.351562 "/>
<path fill-rule="evenodd" fill="rgb(98.826599%, 89.0625%, 76.951599%)" fill-opacity="1" d="M 1792.710938 1184.140625 C 1810.210938 1207.101562 1865.191406 1123.980469 1882.609375 1102.820312 L 1868.589844 1084.890625 L 1796.160156 1151.871094 L 1792.710938 1184.140625 "/>
<path fill-rule="evenodd" fill="rgb(98.826599%, 89.0625%, 76.951599%)" fill-opacity="1" d="M 1873.480469 1077.261719 L 1875.628906 1073.53125 L 1879.609375 1065.210938 L 1882.351562 1061.75 L 1886.429688 1058.128906 L 1890.128906 1059.050781 L 1892.300781 1060.371094 L 1891.699219 1074.628906 L 1884.949219 1084.160156 L 1878.070312 1084.308594 L 1873.480469 1077.261719 "/>
<path fill-rule="evenodd" fill="rgb(30.979919%, 44.309998%, 70.896912%)" fill-opacity="1" d="M 1810.449219 1129.25 C 1810.679688 1124.28125 1812.308594 1122.128906 1814.789062 1121.878906 C 1825.378906 1120.808594 1867.578125 1174.429688 1840.058594 1159.929688 C 1838.871094 1159.308594 1813.199219 1131.988281 1810.449219 1129.25 "/>
<path fill-rule="evenodd" fill="rgb(18.041992%, 32.151794%, 51.756287%)" fill-opacity="1" d="M 1810.449219 1129.25 L 1802.878906 1130.628906 L 1800.378906 1135.238281 L 1796.160156 1134.121094 L 1783.640625 1145.609375 L 1790.109375 1184.320312 C 1794.640625 1190.261719 1804.820312 1189.710938 1813.199219 1184.53125 C 1814.238281 1183.878906 1820.78125 1182.960938 1821.839844 1182.171875 C 1823.960938 1180.589844 1824.289062 1178.011719 1826.121094 1176.148438 C 1830.511719 1171.648438 1836.039062 1167.140625 1841.640625 1160.730469 C 1836.960938 1156.300781 1814.230469 1133.070312 1810.449219 1129.25 "/>
<path fill-rule="evenodd" fill="rgb(9.397888%, 20.776367%, 36.863708%)" fill-opacity="1" d="M 1995.890625 1477.171875 C 1999.441406 1475.589844 2018.101562 1471.308594 2018.101562 1471.308594 C 2032.230469 1465.929688 2045.949219 1461.15625 2057.390625 1451.011719 C 2059.839844 1448.835938 2062.28125 1446.691406 2064.511719 1444.980469 C 2068.339844 1442.046875 2076.339844 1441.402344 2076.890625 1448.636719 C 2078.039062 1463.71875 2053.191406 1484.714844 2043.660156 1495.660156 C 2040.710938 1499.039062 2038.078125 1502.667969 2035.300781 1506.167969 C 2031.019531 1511.554688 2025.871094 1519.074219 2020.230469 1522.890625 C 2011.660156 1528.691406 2008.53125 1523.039062 1997.238281 1508.398438 C 1995.519531 1506.160156 1993.550781 1504.335938 1990.269531 1503.359375 L 1991.699219 1495.523438 L 1991.660156 1488.84375 L 1995.890625 1477.171875 "/>
<path fill-rule="evenodd" fill="rgb(100%, 50.193787%, 0%)" fill-opacity="1" d="M 1625.371094 1321.199219 C 1567.851562 1459.910156 1705.660156 1426.894531 1823.519531 1406.75 C 1841.648438 1404.675781 1870.46875 1407.59375 1869.398438 1382.761719 C 1867.949219 1349.039062 1823.191406 1351.390625 1786.648438 1345.859375 L 1762.789062 1342.441406 L 1625.371094 1321.199219 "/>
<path fill-rule="evenodd" fill="rgb(100%, 50.193787%, 0%)" fill-opacity="1" d="M 1857.941406 1361.058594 C 1890.851562 1384.058594 1920.839844 1408.550781 1952.160156 1431.972656 C 1963.390625 1440.371094 1974.800781 1448.636719 1986.570312 1456.644531 L 2003.929688 1468.789062 C 2008.75 1493.050781 2004.308594 1507.023438 1988.429688 1506.789062 C 1955.460938 1488.039062 1848.578125 1413.398438 1814.371094 1397.011719 L 1833.449219 1387.398438 C 1833.449219 1387.398438 1849.519531 1388.710938 1850.558594 1382.128906 C 1851.601562 1375.558594 1850.230469 1372.480469 1849.910156 1370.628906 C 1849.578125 1368.78125 1857.941406 1361.058594 1857.941406 1361.058594 "/>
<path fill-rule="evenodd" fill="rgb(100%, 91.40625%, 63.084412%)" fill-opacity="1" d="M 493.6875 1516.898438 L 576.753906 1516.898438 C 602.5625 1516.898438 625.421875 1530.136719 638.894531 1550.152344 C 635.265625 1549.152344 631.445312 1548.617188 627.511719 1548.617188 L 501.773438 1548.617188 C 478.050781 1548.617188 458.644531 1568.023438 458.644531 1591.746094 C 458.644531 1615.46875 478.050781 1634.875 501.773438 1634.875 L 627.511719 1634.875 C 631.445312 1634.875 635.265625 1634.339844 638.894531 1633.335938 C 625.421875 1653.355469 602.5625 1666.59375 576.753906 1666.59375 L 493.6875 1666.59375 C 452.519531 1666.59375 418.839844 1632.914062 418.839844 1591.746094 C 418.839844 1550.578125 452.519531 1516.898438 493.6875 1516.898438 "/>
<path fill-rule="evenodd" fill="rgb(100%, 91.40625%, 63.084412%)" fill-opacity="1" d="M 554.984375 1552.378906 C 557.371094 1671.398438 635.28125 1767.832031 730.175781 1767.832031 L 804.9375 1767.832031 C 899.835938 1767.832031 977.742188 1671.398438 980.128906 1552.378906 C 980.164062 1550.507812 980.183594 1548.632812 980.183594 1546.753906 C 980.183594 1533.929688 979.304688 1521.351562 977.625 1509.113281 L 557.488281 1509.113281 C 555.808594 1521.351562 554.929688 1533.929688 554.929688 1546.753906 C 554.929688 1548.632812 554.949219 1550.507812 554.984375 1552.378906 "/>
<path fill-rule="evenodd" fill="rgb(92.1875%, 79.6875%, 38.818359%)" fill-opacity="1" d="M 542.585938 1509.113281 L 992.53125 1509.113281 L 992.53125 1552.378906 L 542.585938 1552.378906 L 542.585938 1509.113281 "/>
<path fill-rule="evenodd" fill="rgb(74.021912%, 58.789062%, 9.008789%)" fill-opacity="1" d="M 526.160156 1762.636719 L 1008.949219 1762.636719 C 1017.28125 1762.636719 1024.089844 1769.449219 1024.089844 1777.777344 C 1024.089844 1786.105469 1017.28125 1792.921875 1008.949219 1792.921875 L 526.160156 1792.921875 C 517.832031 1792.921875 511.019531 1786.105469 511.019531 1777.777344 C 511.019531 1769.449219 517.832031 1762.636719 526.160156 1762.636719 "/>
<path fill-rule="evenodd" fill="rgb(30.979919%, 44.309998%, 70.896912%)" fill-opacity="1" d="M 1089.828125 1246.039062 L 1089.828125 1246.03125 C 1078.769531 1243.648438 1071.679688 1232.660156 1074.058594 1221.609375 L 1075.261719 1216.039062 C 1077.648438 1204.980469 1088.640625 1197.890625 1099.691406 1200.269531 C 1110.75 1202.660156 1117.839844 1213.648438 1115.460938 1224.699219 L 1114.261719 1230.269531 C 1111.871094 1241.328125 1100.878906 1248.421875 1089.828125 1246.039062 "/>
<path fill-rule="evenodd" fill="rgb(9.397888%, 20.776367%, 36.863708%)" fill-opacity="1" d="M 1116.539062 1209.28125 L 1080.628906 1201.539062 L 1152.539062 868 L 1188.460938 875.738281 L 1116.539062 1209.28125 "/>
<path fill-rule="evenodd" fill="rgb(30.979919%, 44.309998%, 70.896912%)" fill-opacity="1" d="M 1180.820312 823.980469 L 1188.460938 875.738281 L 1152.539062 868 Z M 1180.820312 823.980469 "/>
<path fill-rule="evenodd" fill="rgb(9.397888%, 20.776367%, 36.863708%)" fill-opacity="1" d="M 1068.71875 1194.5 L 1075.128906 1195.878906 L 1098.089844 1089.398438 L 1091.671875 1088.019531 L 1068.71875 1194.5 "/>
<path fill-rule="evenodd" fill="rgb(30.979919%, 44.309998%, 70.896912%)" fill-opacity="1" d="M 1075.128906 1195.878906 L 1081.550781 1197.261719 L 1084.5 1183.578125 L 1078.078125 1182.199219 L 1075.128906 1195.878906 "/>
<path fill-rule="evenodd" fill="rgb(18.041992%, 32.151794%, 51.756287%)" fill-opacity="1" d="M 1119.519531 1225.589844 L 1071.199219 1215.171875 L 1074.429688 1200.199219 L 1122.738281 1210.621094 L 1119.519531 1225.589844 "/>
<path fill-rule="evenodd" fill="rgb(94.921875%, 56.834412%, 10.984802%)" fill-opacity="1" d="M 896.4375 802.828125 L 896.433594 802.828125 C 884.265625 808.058594 878.589844 822.289062 883.816406 834.460938 L 886.453125 840.589844 C 891.679688 852.75 905.910156 858.429688 918.078125 853.199219 C 930.246094 847.96875 935.921875 833.738281 930.695312 821.578125 L 928.058594 815.449219 C 922.832031 803.28125 908.601562 797.601562 896.4375 802.828125 "/>
<path fill-rule="evenodd" fill="rgb(94.921875%, 56.834412%, 10.984802%)" fill-opacity="1" d="M 935.417969 839.058594 L 895.878906 856.039062 L 1053.628906 1223.179688 L 1093.171875 1206.191406 L 935.417969 839.058594 "/>
<path fill-rule="evenodd" fill="rgb(100%, 74.804688%, 0%)" fill-opacity="1" d="M 1096.050781 1267.398438 L 1093.171875 1206.191406 L 1053.628906 1223.179688 Z M 1096.050781 1267.398438 "/>
<path fill-rule="evenodd" fill="rgb(81.25%, 52.929688%, 32.542419%)" fill-opacity="1" d="M 883.78125 866.820312 L 890.839844 863.78125 L 941.199219 980.980469 L 934.140625 984.019531 L 883.78125 866.820312 "/>
<path fill-rule="evenodd" fill="rgb(72.851562%, 43.920898%, 23.535156%)" fill-opacity="1" d="M 890.839844 863.78125 L 897.902344 860.75 L 904.371094 875.808594 L 897.3125 878.839844 L 890.839844 863.78125 "/>
<path fill-rule="evenodd" fill="rgb(100%, 84.375%, 21.946716%)" fill-opacity="1" d="M 935.164062 819.648438 L 881.976562 842.5 L 889.054688 858.980469 L 942.242188 836.121094 L 935.164062 819.648438 "/>
<path fill-rule="evenodd" fill="rgb(100%, 36.863708%, 38.818359%)" fill-opacity="1" d="M 1002.980469 825.941406 C 991.929688 828.320312 984.835938 839.320312 987.21875 850.371094 L 988.417969 855.941406 C 990.800781 866.988281 1001.789062 874.078125 1012.851562 871.699219 C 1023.898438 869.320312 1030.988281 858.320312 1028.609375 847.269531 L 1027.410156 841.699219 C 1025.03125 830.648438 1014.039062 823.558594 1002.980469 825.941406 "/>
<path fill-rule="evenodd" fill="rgb(100%, 36.863708%, 38.818359%)" fill-opacity="1" d="M 1029.699219 862.691406 L 993.78125 870.441406 L 1065.691406 1203.980469 L 1101.609375 1196.230469 L 1029.699219 862.691406 "/>
<path fill-rule="evenodd" fill="rgb(100%, 43.920898%, 48.631287%)" fill-opacity="1" d="M 1093.980469 1248 L 1101.609375 1196.230469 L 1065.691406 1203.980469 Z M 1093.980469 1248 "/>
<path fill-rule="evenodd" fill="rgb(43.530273%, 7.835388%, 20.776367%)" fill-opacity="1" d="M 981.875 877.480469 L 988.289062 876.101562 L 1011.238281 982.570312 L 1004.828125 983.949219 L 981.875 877.480469 "/>
<path fill-rule="evenodd" fill="rgb(100%, 52.539062%, 50.976562%)" fill-opacity="1" d="M 988.289062 876.101562 L 994.703125 874.710938 L 997.652344 888.390625 L 991.238281 889.78125 L 988.289062 876.101562 "/>
<path fill-rule="evenodd" fill="rgb(100%, 52.539062%, 50.976562%)" fill-opacity="1" d="M 1032.671875 846.390625 L 984.355469 856.808594 L 987.582031 871.769531 L 1035.898438 861.359375 L 1032.671875 846.390625 "/>
<path fill-rule="evenodd" fill="rgb(18.041992%, 8.250427%, 29.026794%)" fill-opacity="1" d="M 1231.171875 843.878906 C 1220.300781 840.761719 1208.859375 847.089844 1205.738281 857.960938 L 1204.160156 863.441406 C 1201.039062 874.300781 1207.378906 885.75 1218.25 888.871094 C 1229.121094 891.988281 1240.558594 885.660156 1243.679688 874.789062 L 1245.261719 869.308594 C 1248.378906 858.441406 1242.039062 847 1231.171875 843.878906 "/>
<path fill-rule="evenodd" fill="rgb(75.78125%, 45.092773%, 63.867188%)" fill-opacity="1" d="M 1237.359375 888.890625 L 1202.039062 878.75 L 1107.828125 1206.691406 L 1143.148438 1216.828125 L 1237.359375 888.890625 "/>
<path fill-rule="evenodd" fill="rgb(19.993591%, 9.008789%, 32.151794%)" fill-opacity="1" d="M 1111.960938 1258.851562 L 1143.148438 1216.828125 L 1107.828125 1206.691406 Z M 1111.960938 1258.851562 "/>
<path fill-rule="evenodd" fill="rgb(18.041992%, 8.250427%, 29.026794%)" fill-opacity="1" d="M 1188.21875 879.328125 L 1194.53125 881.140625 L 1164.449219 985.828125 L 1158.140625 984.019531 L 1188.21875 879.328125 "/>
<path fill-rule="evenodd" fill="rgb(58.006287%, 26.660156%, 50.193787%)" fill-opacity="1" d="M 1194.53125 881.140625 L 1200.828125 882.949219 L 1196.96875 896.398438 L 1190.660156 894.589844 L 1194.53125 881.140625 "/>
<path fill-rule="evenodd" fill="rgb(58.006287%, 26.660156%, 50.193787%)" fill-opacity="1" d="M 1247.679688 875.929688 L 1200.171875 862.28125 L 1195.941406 877 L 1243.449219 890.648438 L 1247.679688 875.929688 "/>
<path fill-rule="evenodd" fill="rgb(80.076599%, 80.076599%, 80.076599%)" fill-opacity="1" d="M 1223.839844 1009.078125 L 1224.511719 1008.421875 L 1224.511719 983.679688 L 1207.898438 1000.28125 L 1199.269531 991.660156 L 1224.21875 966.710938 L 1199.46875 966.710938 L 1186.898438 979.289062 L 1178.28125 970.660156 L 1182.230469 966.710938 L 1149.578125 966.710938 L 1153.53125 970.660156 L 1144.910156 979.289062 L 1136.289062 970.660156 L 1140.238281 966.710938 L 1107.589844 966.710938 L 1111.539062 970.660156 L 1102.921875 979.289062 L 1094.289062 970.660156 L 1098.238281 966.710938 L 1065.601562 966.710938 L 1069.550781 970.660156 L 1060.921875 979.289062 L 1052.300781 970.660156 L 1056.25 966.710938 L 1023.609375 966.710938 L 1027.558594 970.660156 L 1018.929688 979.289062 L 1010.308594 970.660156 L 1014.261719 966.710938 L 981.613281 966.710938 L 985.5625 970.660156 L 976.941406 979.289062 L 968.316406 970.660156 L 972.265625 966.710938 L 939.621094 966.710938 L 943.570312 970.660156 L 934.949219 979.289062 L 922.375 966.710938 L 914.589844 966.710938 L 914.589844 983.671875 L 922.574219 991.660156 L 914.589844 999.648438 L 914.589844 1009.078125 L 928.675781 1009.078125 L 928.777344 1010.199219 L 934.949219 1004.03125 L 943.570312 1012.660156 L 934.949219 1021.28125 L 929.273438 1015.609375 L 932.308594 1048.660156 L 934.949219 1046.019531 L 943.570312 1054.648438 L 934.949219 1063.269531 L 933.519531 1061.839844 L 936.019531 1089.089844 L 943.570312 1096.640625 L 937.289062 1102.921875 L 940.265625 1135.328125 L 943.570312 1138.628906 L 940.820312 1141.378906 L 949.808594 1239.300781 L 949.808594 1241.128906 L 955.945312 1234.988281 L 964.566406 1243.609375 L 955.941406 1252.238281 L 949.808594 1246.101562 L 949.808594 1281.671875 L 951.253906 1281.671875 L 955.941406 1276.980469 L 960.636719 1281.671875 L 993.246094 1281.671875 L 997.9375 1276.980469 L 1002.628906 1281.671875 L 1035.238281 1281.671875 L 1039.929688 1276.980469 L 1044.621094 1281.671875 L 1077.230469 1281.671875 L 1081.921875 1276.980469 L 1086.609375 1281.671875 L 1119.21875 1281.671875 L 1123.910156 1276.980469 L 1128.601562 1281.671875 L 1161.21875 1281.671875 L 1165.910156 1276.980469 L 1170.601562 1281.671875 L 1189.289062 1281.671875 L 1189.289062 1270.851562 L 1186.898438 1273.230469 L 1178.28125 1264.609375 L 1186.898438 1255.988281 L 1189.289062 1258.371094 L 1189.289062 1239.300781 L 1190.351562 1227.800781 L 1186.898438 1231.238281 L 1178.28125 1222.621094 L 1186.898438 1213.988281 L 1191.210938 1218.308594 L 1194.589844 1181.558594 L 1186.898438 1189.25 L 1178.28125 1180.621094 L 1186.898438 1172 L 1194.75 1179.851562 L 1200.359375 1118.71875 L 1199.269531 1117.640625 L 1200.570312 1116.328125 L 1203.890625 1080.261719 L 1199.269531 1075.648438 L 1204.820312 1070.101562 L 1207.421875 1041.800781 L 1199.269531 1033.648438 L 1207.898438 1025.03125 L 1208.871094 1025.988281 L 1210.421875 1009.078125 Z M 1195.53125 1012.660156 L 1186.898438 1021.28125 L 1178.28125 1012.660156 L 1186.898438 1004.03125 Z M 1174.53125 991.660156 L 1165.898438 1000.28125 L 1157.28125 991.660156 L 1165.910156 983.039062 Z M 1195.53125 1054.648438 L 1186.898438 1063.269531 L 1178.28125 1054.648438 L 1186.898438 1046.019531 Z M 1174.53125 1033.648438 L 1165.898438 1042.28125 L 1157.28125 1033.648438 L 1165.910156 1025.03125 Z M 1153.53125 1012.660156 L 1144.910156 1021.28125 L 1136.289062 1012.660156 L 1144.910156 1004.03125 Z M 1132.539062 991.660156 L 1123.910156 1000.28125 L 1115.289062 991.660156 L 1123.910156 983.039062 Z M 1195.53125 1096.640625 L 1186.898438 1105.261719 L 1178.28125 1096.640625 L 1186.898438 1088.019531 Z M 1174.53125 1075.640625 L 1165.898438 1084.269531 L 1157.28125 1075.648438 L 1165.910156 1067.019531 Z M 1153.53125 1054.648438 L 1144.910156 1063.269531 L 1136.289062 1054.648438 L 1144.910156 1046.019531 Z M 1132.539062 1033.648438 L 1123.910156 1042.28125 L 1115.289062 1033.648438 L 1123.910156 1025.03125 Z M 1111.539062 1012.660156 L 1102.921875 1021.28125 L 1094.289062 1012.660156 L 1102.921875 1004.03125 Z M 1090.539062 991.660156 L 1081.921875 1000.28125 L 1073.300781 991.660156 L 1081.921875 983.039062 Z M 1195.53125 1138.628906 L 1186.898438 1147.261719 L 1178.28125 1138.628906 L 1186.898438 1130.011719 Z M 1174.53125 1117.640625 L 1165.898438 1126.261719 L 1157.28125 1117.640625 L 1165.898438 1109.011719 Z M 1153.53125 1096.640625 L 1144.910156 1105.261719 L 1136.289062 1096.640625 L 1144.910156 1088.019531 Z M 1132.539062 1075.640625 L 1123.910156 1084.269531 L 1115.289062 1075.648438 L 1123.910156 1067.019531 Z M 1111.539062 1054.648438 L 1102.921875 1063.269531 L 1094.289062 1054.648438 L 1102.921875 1046.019531 Z M 1090.539062 1033.648438 L 1081.921875 1042.28125 L 1073.300781 1033.648438 L 1081.921875 1025.03125 Z M 1069.550781 1012.660156 L 1060.921875 1021.28125 L 1052.300781 1012.660156 L 1060.921875 1004.03125 Z M 1048.550781 991.660156 L 1039.929688 1000.28125 L 1031.300781 991.660156 L 1039.929688 983.039062 Z M 1174.53125 1159.628906 L 1165.898438 1168.25 L 1157.28125 1159.628906 L 1165.910156 1151 Z M 1153.53125 1138.628906 L 1144.910156 1147.261719 L 1136.289062 1138.628906 L 1144.910156 1130.011719 Z M 1132.539062 1117.640625 L 1123.910156 1126.261719 L 1115.289062 1117.640625 L 1123.910156 1109.011719 Z M 1111.539062 1096.640625 L 1102.921875 1105.261719 L 1094.289062 1096.640625 L 1102.921875 1088.019531 Z M 1090.539062 1075.640625 L 1081.921875 1084.269531 L 1073.300781 1075.648438 L 1081.921875 1067.019531 Z M 1069.550781 1054.648438 L 1060.921875 1063.269531 L 1052.300781 1054.648438 L 1060.921875 1046.019531 Z M 1048.550781 1033.648438 L 1039.929688 1042.28125 L 1031.300781 1033.648438 L 1039.929688 1025.03125 Z M 1027.558594 1012.660156 L 1018.929688 1021.28125 L 1010.308594 1012.660156 L 1018.929688 1004.03125 Z M 1006.558594 991.660156 L 997.933594 1000.28125 L 989.3125 991.660156 L 997.9375 983.039062 Z M 1174.53125 1201.621094 L 1165.898438 1210.25 L 1157.28125 1201.621094 L 1165.910156 1193 Z M 1153.53125 1180.621094 L 1144.910156 1189.25 L 1136.289062 1180.621094 L 1144.910156 1172 Z M 1132.539062 1159.628906 L 1123.910156 1168.25 L 1115.289062 1159.628906 L 1123.910156 1151 Z M 1111.539062 1138.628906 L 1102.921875 1147.261719 L 1094.289062 1138.628906 L 1102.921875 1130.011719 Z M 1090.539062 1117.640625 L 1081.921875 1126.261719 L 1073.300781 1117.640625 L 1081.921875 1109.011719 Z M 1069.550781 1096.640625 L 1060.921875 1105.261719 L 1052.300781 1096.640625 L 1060.921875 1088.019531 Z M 1048.550781 1075.640625 L 1039.929688 1084.269531 L 1031.300781 1075.648438 L 1039.929688 1067.019531 Z M 1027.558594 1054.648438 L 1018.929688 1063.269531 L 1010.308594 1054.648438 L 1018.929688 1046.019531 Z M 1006.558594 1033.648438 L 997.933594 1042.28125 L 989.3125 1033.648438 L 997.9375 1025.03125 Z M 985.5625 1012.660156 L 976.941406 1021.28125 L 968.316406 1012.660156 L 976.941406 1004.03125 Z M 964.566406 991.660156 L 955.941406 1000.28125 L 947.320312 991.660156 L 955.945312 983.039062 Z M 1174.53125 1243.609375 L 1165.898438 1252.238281 L 1157.28125 1243.609375 L 1165.910156 1234.988281 Z M 1153.53125 1222.621094 L 1144.910156 1231.238281 L 1136.289062 1222.621094 L 1144.910156 1213.988281 Z M 1132.539062 1201.621094 L 1123.910156 1210.25 L 1115.289062 1201.621094 L 1123.910156 1193 Z M 1111.539062 1180.621094 L 1102.921875 1189.25 L 1094.289062 1180.621094 L 1102.921875 1172 Z M 1090.539062 1159.628906 L 1081.921875 1168.25 L 1073.300781 1159.628906 L 1081.921875 1151 Z M 1069.550781 1138.628906 L 1060.921875 1147.261719 L 1052.300781 1138.628906 L 1060.921875 1130.011719 Z M 1048.550781 1117.640625 L 1039.929688 1126.261719 L 1031.300781 1117.640625 L 1039.929688 1109.011719 Z M 1027.558594 1096.640625 L 1018.929688 1105.261719 L 1010.308594 1096.640625 L 1018.929688 1088.019531 Z M 1006.558594 1075.640625 L 997.933594 1084.269531 L 989.3125 1075.648438 L 997.9375 1067.019531 Z M 985.5625 1054.648438 L 976.941406 1063.269531 L 968.316406 1054.648438 L 976.941406 1046.019531 Z M 964.566406 1033.648438 L 955.941406 1042.28125 L 947.320312 1033.648438 L 955.945312 1025.03125 Z M 1153.53125 1264.609375 L 1144.910156 1273.230469 L 1136.289062 1264.609375 L 1144.910156 1255.988281 Z M 1132.539062 1243.609375 L 1123.910156 1252.238281 L 1115.289062 1243.609375 L 1123.910156 1234.988281 Z M 1111.539062 1222.621094 L 1102.921875 1231.238281 L 1094.289062 1222.621094 L 1102.921875 1213.988281 Z M 1090.539062 1201.621094 L 1081.921875 1210.25 L 1073.300781 1201.621094 L 1081.921875 1193 Z M 1069.550781 1180.621094 L 1060.921875 1189.25 L 1052.300781 1180.621094 L 1060.921875 1172 Z M 1048.550781 1159.628906 L 1039.929688 1168.25 L 1031.300781 1159.628906 L 1039.929688 1151 Z M 1027.558594 1138.628906 L 1018.929688 1147.261719 L 1010.308594 1138.628906 L 1018.929688 1130.011719 Z M 1006.558594 1117.640625 L 997.933594 1126.261719 L 989.3125 1117.640625 L 997.933594 1109.011719 Z M 985.5625 1096.640625 L 976.941406 1105.261719 L 968.316406 1096.640625 L 976.941406 1088.019531 Z M 964.566406 1075.640625 L 955.941406 1084.269531 L 947.320312 1075.648438 L 955.945312 1067.019531 Z M 1111.539062 1264.609375 L 1102.921875 1273.230469 L 1094.289062 1264.609375 L 1102.921875 1255.988281 Z M 1090.539062 1243.609375 L 1081.921875 1252.238281 L 1073.300781 1243.609375 L 1081.921875 1234.988281 Z M 1069.550781 1222.621094 L 1060.921875 1231.238281 L 1052.300781 1222.621094 L 1060.921875 1213.988281 Z M 1048.550781 1201.621094 L 1039.929688 1210.25 L 1031.300781 1201.621094 L 1039.929688 1193 Z M 1027.558594 1180.621094 L 1018.929688 1189.25 L 1010.308594 1180.621094 L 1018.929688 1172 Z M 1006.558594 1159.628906 L 997.933594 1168.25 L 989.3125 1159.628906 L 997.9375 1151 Z M 985.5625 1138.628906 L 976.941406 1147.261719 L 968.316406 1138.628906 L 976.941406 1130.011719 Z M 964.566406 1117.640625 L 955.941406 1126.261719 L 947.320312 1117.640625 L 955.941406 1109.011719 Z M 1069.550781 1264.609375 L 1060.921875 1273.230469 L 1052.300781 1264.609375 L 1060.921875 1255.988281 Z M 1048.550781 1243.609375 L 1039.929688 1252.238281 L 1031.300781 1243.609375 L 1039.929688 1234.988281 Z M 1027.558594 1222.621094 L 1018.929688 1231.238281 L 1010.308594 1222.621094 L 1018.929688 1213.988281 Z M 1006.558594 1201.621094 L 997.933594 1210.25 L 989.3125 1201.621094 L 997.9375 1193 Z M 985.5625 1180.621094 L 976.941406 1189.25 L 968.316406 1180.621094 L 976.941406 1172 Z M 964.566406 1159.628906 L 955.941406 1168.25 L 947.320312 1159.628906 L 955.945312 1151 Z M 1027.558594 1264.609375 L 1018.929688 1273.230469 L 1010.308594 1264.609375 L 1018.929688 1255.988281 Z M 1006.558594 1243.609375 L 997.933594 1252.238281 L 989.3125 1243.609375 L 997.9375 1234.988281 Z M 985.5625 1222.621094 L 976.941406 1231.238281 L 968.316406 1222.621094 L 976.941406 1213.988281 Z M 964.566406 1201.621094 L 955.941406 1210.25 L 947.320312 1201.621094 L 955.945312 1193 Z M 985.5625 1264.609375 L 976.941406 1273.230469 L 968.316406 1264.609375 L 976.941406 1255.988281 L 985.5625 1264.609375 "/>
<path fill-rule="evenodd" fill="rgb(50.193787%, 50.193787%, 50.193787%)" fill-opacity="1" d="M 1224.511719 966.710938 L 914.589844 966.710938 L 914.589844 1009.078125 L 1224.511719 1009.078125 L 1224.511719 966.710938 "/>
<path fill-rule="evenodd" fill="rgb(50.193787%, 50.193787%, 50.193787%)" fill-opacity="1" d="M 1189.289062 1239.300781 L 949.808594 1239.300781 L 949.808594 1281.671875 L 1189.289062 1281.671875 L 1189.289062 1239.300781 "/>
<path fill-rule="evenodd" fill="rgb(5.880737%, 73.242188%, 76.951599%)" fill-opacity="1" d="M 1798.71875 1560.539062 L 1253.269531 1560.539062 C 1214.058594 1560.539062 1181.980469 1588.546875 1181.980469 1622.78125 L 1181.980469 1730.675781 C 1181.980469 1764.910156 1214.058594 1792.921875 1253.269531 1792.921875 L 1798.71875 1792.921875 C 1837.929688 1792.921875 1870.011719 1764.910156 1870.011719 1730.675781 L 1870.011719 1622.78125 C 1870.011719 1588.546875 1837.929688 1560.539062 1798.71875 1560.539062 "/>
<path fill-rule="evenodd" fill="rgb(5.880737%, 73.242188%, 76.951599%)" fill-opacity="1" d="M 1654.53125 1560.539062 L 1084.140625 1560.539062 L 1084.140625 1590.046875 L 1654.53125 1590.046875 L 1654.53125 1560.539062 "/>
<path fill-rule="evenodd" fill="rgb(100%, 100%, 80.076599%)" fill-opacity="1" d="M 1520.230469 1590.046875 L 1116.730469 1590.046875 C 1113.96875 1590.046875 1111.261719 1590.222656 1108.609375 1590.558594 C 1136.171875 1594.027344 1157.519531 1614.859375 1157.519531 1639.84375 L 1157.519531 1713.613281 C 1157.519531 1738.597656 1136.171875 1759.429688 1108.609375 1762.898438 C 1111.261719 1763.234375 1113.96875 1763.410156 1116.730469 1763.410156 L 1520.230469 1763.410156 C 1551.601562 1763.410156 1577.269531 1741.003906 1577.269531 1713.613281 L 1577.269531 1639.84375 C 1577.269531 1612.453125 1551.601562 1590.046875 1520.230469 1590.046875 "/>
<path fill-rule="evenodd" fill="rgb(5.880737%, 73.242188%, 76.951599%)" fill-opacity="1" d="M 1654.53125 1763.410156 L 1084.140625 1763.410156 L 1084.140625 1792.921875 L 1654.53125 1792.921875 L 1654.53125 1763.410156 "/>
<path fill-rule="evenodd" fill="rgb(26.660156%, 46.679688%, 49.021912%)" fill-opacity="1" d="M 1777.589844 1622.78125 C 1777.589844 1588.546875 1745.511719 1560.539062 1706.289062 1560.539062 L 1767.558594 1560.539062 C 1798.640625 1560.539062 1824.070312 1582.738281 1824.070312 1609.871094 L 1824.070312 1743.585938 C 1824.070312 1770.71875 1798.640625 1792.921875 1767.558594 1792.921875 L 1706.289062 1792.921875 C 1745.511719 1792.921875 1777.589844 1764.910156 1777.589844 1730.675781 L 1777.589844 1622.78125 "/>
<path fill-rule="evenodd" fill="rgb(26.660156%, 46.679688%, 49.021912%)" fill-opacity="1" d="M 1690.980469 1622.78125 C 1690.980469 1588.546875 1658.890625 1560.539062 1619.679688 1560.539062 L 1680.941406 1560.539062 C 1712.019531 1560.539062 1737.449219 1582.738281 1737.449219 1609.871094 L 1737.449219 1743.585938 C 1737.449219 1770.71875 1712.019531 1792.921875 1680.941406 1792.921875 L 1619.679688 1792.921875 C 1658.890625 1792.921875 1690.980469 1764.910156 1690.980469 1730.675781 L 1690.980469 1622.78125 "/>
<path fill-rule="evenodd" fill="rgb(94.139099%, 79.6875%, 70.506287%)" fill-opacity="1" d="M 1143.820312 1607.5625 L 1563.570312 1607.5625 C 1560.898438 1604.835938 1557.890625 1602.359375 1554.621094 1600.1875 L 1134.871094 1600.1875 C 1138.148438 1602.359375 1141.148438 1604.835938 1143.820312 1607.5625 "/>
<path fill-rule="evenodd" fill="rgb(94.139099%, 79.6875%, 70.506287%)" fill-opacity="1" d="M 1157.519531 1643.527344 L 1577.269531 1643.527344 L 1577.269531 1639.84375 C 1577.269531 1638.601562 1577.210938 1637.371094 1577.109375 1636.148438 L 1157.359375 1636.148438 C 1157.46875 1637.371094 1157.519531 1638.601562 1157.519531 1639.84375 L 1157.519531 1643.527344 "/>
<path fill-rule="evenodd" fill="rgb(94.139099%, 79.6875%, 70.506287%)" fill-opacity="1" d="M 1157.519531 1671.191406 L 1577.269531 1671.191406 L 1577.269531 1663.816406 L 1157.519531 1663.816406 L 1157.519531 1671.191406 "/>
<path fill-rule="evenodd" fill="rgb(94.139099%, 79.6875%, 70.506287%)" fill-opacity="1" d="M 1157.519531 1697.933594 L 1577.269531 1697.933594 L 1577.269531 1690.558594 L 1157.519531 1690.558594 L 1157.519531 1697.933594 "/>
<path fill-rule="evenodd" fill="rgb(94.139099%, 79.6875%, 70.506287%)" fill-opacity="1" d="M 1151.539062 1735.742188 L 1571.28125 1735.742188 C 1572.640625 1733.382812 1573.78125 1730.917969 1574.699219 1728.367188 L 1154.949219 1728.367188 C 1154.039062 1730.917969 1152.890625 1733.382812 1151.539062 1735.742188 "/>
<path fill-rule="evenodd" fill="rgb(94.139099%, 79.6875%, 70.506287%)" fill-opacity="1" d="M 1133.449219 1754.1875 L 1553.199219 1754.1875 C 1556.648438 1752.035156 1559.820312 1749.558594 1562.648438 1746.808594 L 1142.898438 1746.808594 C 1140.070312 1749.558594 1136.898438 1752.035156 1133.449219 1754.1875 "/>
<path fill-rule="evenodd" fill="rgb(0.78125%, 66.601562%, 70.117188%)" fill-opacity="1" d="M 1844.679688 1778.160156 C 1832.25 1787.359375 1816.191406 1792.921875 1798.71875 1792.921875 L 1084.140625 1792.921875 L 1084.140625 1778.160156 L 1844.679688 1778.160156 "/>
<path fill-rule="evenodd" fill="rgb(18.041992%, 31.37207%, 34.910583%)" fill-opacity="1" d="M 1844.679688 1778.160156 C 1832.25 1787.359375 1816.191406 1792.921875 1798.71875 1792.921875 L 1619.679688 1792.921875 C 1632.308594 1792.921875 1644.210938 1790.011719 1654.53125 1784.921875 C 1658.480469 1782.972656 1662.199219 1780.707031 1665.640625 1778.160156 L 1844.679688 1778.160156 "/>
<path fill-rule="evenodd" fill="rgb(0.78125%, 66.601562%, 70.117188%)" fill-opacity="1" d="M 1844.679688 1778.160156 C 1832.25 1787.359375 1816.191406 1792.921875 1798.71875 1792.921875 L 1680.941406 1792.921875 C 1696.640625 1792.921875 1710.890625 1787.257812 1721.148438 1778.160156 L 1844.679688 1778.160156 "/>
<path fill-rule="evenodd" fill="rgb(18.041992%, 31.37207%, 34.910583%)" fill-opacity="1" d="M 1807.769531 1778.160156 L 1844.679688 1778.160156 C 1832.25 1787.359375 1816.191406 1792.921875 1798.71875 1792.921875 L 1706.289062 1792.921875 C 1723.769531 1792.921875 1739.820312 1787.359375 1752.261719 1778.160156 L 1807.769531 1778.160156 "/>
<path fill-rule="evenodd" fill="rgb(0.78125%, 66.601562%, 70.117188%)" fill-opacity="1" d="M 1767.558594 1792.921875 C 1783.25 1792.921875 1797.5 1787.257812 1807.769531 1778.160156 L 1844.679688 1778.160156 C 1832.25 1787.359375 1816.191406 1792.921875 1798.71875 1792.921875 L 1767.558594 1792.921875 "/>
<path fill-rule="evenodd" fill="rgb(43.530273%, 7.835388%, 20.776367%)" fill-opacity="1" d="M 1626.660156 1421.105469 L 1112.519531 1421.105469 C 1080.160156 1421.105469 1053.679688 1437.914062 1053.679688 1458.453125 L 1053.679688 1523.191406 C 1053.679688 1543.730469 1080.160156 1560.539062 1112.519531 1560.539062 L 1626.660156 1560.539062 C 1659.019531 1560.539062 1685.5 1543.730469 1685.5 1523.191406 L 1685.5 1458.453125 C 1685.5 1437.910156 1659.019531 1421.105469 1626.660156 1421.105469 "/>
<path fill-rule="evenodd" fill="rgb(43.530273%, 7.835388%, 20.776367%)" fill-opacity="1" d="M 1443.640625 1421.105469 L 972.949219 1421.105469 L 972.949219 1438.8125 L 1443.640625 1438.8125 L 1443.640625 1421.105469 "/>
<path fill-rule="evenodd" fill="rgb(90.234375%, 90.234375%, 90.234375%)" fill-opacity="1" d="M 1332.808594 1438.8125 L 999.839844 1438.8125 C 997.566406 1438.8125 995.328125 1438.917969 993.136719 1439.117188 C 1015.878906 1441.199219 1033.5 1453.699219 1033.5 1468.6875 L 1033.5 1512.953125 C 1033.5 1527.941406 1015.878906 1540.445312 993.136719 1542.527344 C 995.328125 1542.726562 997.566406 1542.832031 999.839844 1542.832031 L 1332.808594 1542.832031 C 1358.699219 1542.832031 1379.878906 1529.386719 1379.878906 1512.953125 L 1379.878906 1468.6875 C 1379.878906 1452.257812 1358.699219 1438.8125 1332.808594 1438.8125 "/>
<path fill-rule="evenodd" fill="rgb(43.530273%, 7.835388%, 20.776367%)" fill-opacity="1" d="M 1443.640625 1542.832031 L 972.949219 1542.832031 L 972.949219 1560.539062 L 1443.640625 1560.539062 L 1443.640625 1542.832031 "/>
<path fill-rule="evenodd" fill="rgb(25.87738%, 3.529358%, 11.767578%)" fill-opacity="1" d="M 1473.71875 1458.453125 C 1473.71875 1437.910156 1447.238281 1421.105469 1414.878906 1421.105469 L 1465.441406 1421.105469 C 1491.089844 1421.105469 1512.070312 1434.425781 1512.070312 1450.707031 L 1512.070312 1530.9375 C 1512.070312 1547.21875 1491.089844 1560.539062 1465.441406 1560.539062 L 1414.878906 1560.539062 C 1447.238281 1560.539062 1473.71875 1543.730469 1473.71875 1523.191406 L 1473.71875 1458.453125 "/>
<path fill-rule="evenodd" fill="rgb(80.076599%, 80.076599%, 80.076599%)" fill-opacity="1" d="M 1022.199219 1449.320312 L 1368.578125 1449.320312 C 1366.371094 1447.683594 1363.898438 1446.199219 1361.191406 1444.894531 L 1014.808594 1444.894531 C 1017.511719 1446.199219 1019.988281 1447.683594 1022.199219 1449.320312 "/>
<path fill-rule="evenodd" fill="rgb(80.076599%, 80.076599%, 80.076599%)" fill-opacity="1" d="M 1033.5 1470.898438 L 1379.878906 1470.898438 L 1379.878906 1468.6875 C 1379.878906 1467.945312 1379.839844 1467.203125 1379.75 1466.472656 L 1033.371094 1466.472656 C 1033.460938 1467.207031 1033.5 1467.945312 1033.5 1468.6875 L 1033.5 1470.898438 "/>
<path fill-rule="evenodd" fill="rgb(80.076599%, 80.076599%, 80.076599%)" fill-opacity="1" d="M 1033.5 1487.5 L 1379.878906 1487.5 L 1379.878906 1483.074219 L 1033.5 1483.074219 L 1033.5 1487.5 "/>
<path fill-rule="evenodd" fill="rgb(80.076599%, 80.076599%, 80.076599%)" fill-opacity="1" d="M 1033.5 1503.546875 L 1379.878906 1503.546875 L 1379.878906 1499.117188 L 1033.5 1499.117188 L 1033.5 1503.546875 "/>
<path fill-rule="evenodd" fill="rgb(80.076599%, 80.076599%, 80.076599%)" fill-opacity="1" d="M 1028.570312 1526.230469 L 1374.949219 1526.230469 C 1376.058594 1524.8125 1377.011719 1523.335938 1377.761719 1521.804688 L 1031.378906 1521.804688 C 1030.628906 1523.335938 1029.679688 1524.816406 1028.570312 1526.230469 "/>
<path fill-rule="evenodd" fill="rgb(80.076599%, 80.076599%, 80.076599%)" fill-opacity="1" d="M 1013.640625 1537.296875 L 1360.019531 1537.296875 C 1362.871094 1536.007812 1365.488281 1534.519531 1367.820312 1532.871094 L 1021.441406 1532.871094 C 1019.109375 1534.519531 1016.488281 1536.007812 1013.640625 1537.296875 "/>
<path fill-rule="evenodd" fill="rgb(39.988708%, 6.272888%, 18.821716%)" fill-opacity="1" d="M 1600.558594 1551.683594 C 1590.300781 1557.199219 1577.050781 1560.539062 1562.628906 1560.539062 L 972.949219 1560.539062 L 972.949219 1551.683594 L 1600.558594 1551.683594 "/>
<path fill-rule="evenodd" fill="rgb(23.143005%, 3.140259%, 10.594177%)" fill-opacity="1" d="M 1600.558594 1551.683594 C 1590.300781 1557.199219 1577.050781 1560.539062 1562.628906 1560.539062 L 1414.878906 1560.539062 C 1425.308594 1560.539062 1435.128906 1558.792969 1443.640625 1555.738281 C 1446.898438 1554.570312 1449.96875 1553.210938 1452.808594 1551.683594 L 1600.558594 1551.683594 "/>
<path fill-rule="evenodd" fill="rgb(39.988708%, 6.272888%, 18.821716%)" fill-opacity="1" d="M 1536.910156 1560.539062 L 1465.441406 1560.539062 C 1478.390625 1560.539062 1490.148438 1557.140625 1498.621094 1551.683594 L 1570.101562 1551.683594 C 1561.621094 1557.140625 1523.960938 1560.539062 1536.910156 1560.539062 "/>
<path fill-rule="evenodd" fill="rgb(39.988708%, 6.272888%, 18.821716%)" fill-opacity="1" d="M 1536.910156 1560.539062 C 1523.960938 1560.539062 1561.621094 1557.140625 1570.101562 1551.683594 L 1664.601562 1551.683594 C 1654.328125 1557.199219 1641.078125 1560.539062 1626.660156 1560.539062 L 1536.910156 1560.539062 "/>
<path fill-rule="evenodd" fill="rgb(25.87738%, 3.529358%, 11.767578%)" fill-opacity="1" d="M 1577.941406 1458.453125 C 1577.941406 1437.910156 1551.460938 1421.105469 1519.101562 1421.105469 L 1569.660156 1421.105469 C 1595.300781 1421.105469 1616.289062 1434.425781 1616.289062 1450.707031 L 1616.289062 1530.9375 C 1616.289062 1547.21875 1595.300781 1560.539062 1569.660156 1560.539062 L 1519.101562 1560.539062 C 1551.460938 1560.539062 1577.941406 1543.730469 1577.941406 1523.191406 L 1577.941406 1458.453125 "/>
<path fill-rule="evenodd" fill="rgb(23.143005%, 3.140259%, 10.594177%)" fill-opacity="1" d="M 1600.558594 1551.683594 L 1557.03125 1551.683594 C 1546.769531 1557.199219 1533.519531 1560.539062 1519.101562 1560.539062 L 1569.660156 1560.539062 C 1582.609375 1560.539062 1594.371094 1557.140625 1602.839844 1551.683594 L 1600.558594 1551.683594 "/>
<path fill-rule="evenodd" fill="rgb(83.201599%, 51.367188%, 70.896912%)" fill-opacity="1" d="M 934.335938 1281.671875 L 1448.480469 1281.671875 C 1480.839844 1281.671875 1507.320312 1298.480469 1507.320312 1319.019531 L 1507.320312 1383.761719 C 1507.320312 1404.296875 1480.839844 1421.105469 1448.480469 1421.105469 L 934.335938 1421.105469 C 901.976562 1421.105469 875.5 1404.300781 875.5 1383.761719 L 875.5 1319.019531 C 875.5 1298.480469 901.976562 1281.671875 934.335938 1281.671875 "/>
<path fill-rule="evenodd" fill="rgb(83.201599%, 51.367188%, 70.896912%)" fill-opacity="1" d="M 1117.351562 1281.671875 L 1588.050781 1281.671875 L 1588.050781 1299.378906 L 1117.351562 1299.378906 L 1117.351562 1281.671875 "/>
<path fill-rule="evenodd" fill="rgb(90.234375%, 90.234375%, 90.234375%)" fill-opacity="1" d="M 1228.179688 1299.378906 L 1561.160156 1299.378906 C 1563.429688 1299.378906 1565.671875 1299.480469 1567.859375 1299.679688 C 1545.121094 1301.769531 1527.488281 1314.269531 1527.488281 1329.261719 L 1527.488281 1373.519531 C 1527.488281 1388.511719 1545.121094 1401.011719 1567.859375 1403.09375 C 1565.671875 1403.292969 1563.429688 1403.398438 1561.160156 1403.398438 L 1228.179688 1403.398438 C 1202.300781 1403.398438 1181.121094 1389.949219 1181.121094 1373.519531 L 1181.121094 1329.261719 C 1181.121094 1312.820312 1202.300781 1299.378906 1228.179688 1299.378906 "/>
<path fill-rule="evenodd" fill="rgb(83.201599%, 51.367188%, 70.896912%)" fill-opacity="1" d="M 1117.351562 1403.398438 L 1588.050781 1403.398438 L 1588.050781 1421.105469 L 1117.351562 1421.105469 L 1117.351562 1403.398438 "/>
<path fill-rule="evenodd" fill="rgb(58.006287%, 26.660156%, 50.193787%)" fill-opacity="1" d="M 1087.28125 1319.019531 C 1087.28125 1298.480469 1113.761719 1281.671875 1146.121094 1281.671875 L 1095.558594 1281.671875 C 1069.910156 1281.671875 1048.929688 1294.988281 1048.929688 1311.269531 L 1048.929688 1391.5 C 1048.929688 1407.785156 1069.910156 1421.105469 1095.558594 1421.105469 L 1146.121094 1421.105469 C 1113.761719 1421.105469 1087.28125 1404.300781 1087.28125 1383.761719 L 1087.28125 1319.019531 "/>
<path fill-rule="evenodd" fill="rgb(80.076599%, 80.076599%, 80.076599%)" fill-opacity="1" d="M 1538.800781 1309.890625 L 1192.421875 1309.890625 C 1194.621094 1308.25 1197.101562 1306.769531 1199.808594 1305.460938 L 1546.191406 1305.460938 C 1543.480469 1306.769531 1541.011719 1308.25 1538.800781 1309.890625 "/>
<path fill-rule="evenodd" fill="rgb(80.076599%, 80.076599%, 80.076599%)" fill-opacity="1" d="M 1527.488281 1331.46875 L 1181.121094 1331.46875 L 1181.121094 1329.261719 C 1181.121094 1328.511719 1181.160156 1327.769531 1181.25 1327.039062 L 1527.628906 1327.039062 C 1527.539062 1327.769531 1527.488281 1328.511719 1527.488281 1329.261719 L 1527.488281 1331.46875 "/>
<path fill-rule="evenodd" fill="rgb(80.076599%, 80.076599%, 80.076599%)" fill-opacity="1" d="M 1527.488281 1348.070312 L 1181.121094 1348.070312 L 1181.121094 1343.640625 L 1527.488281 1343.640625 L 1527.488281 1348.070312 "/>
<path fill-rule="evenodd" fill="rgb(80.076599%, 80.076599%, 80.076599%)" fill-opacity="1" d="M 1527.488281 1364.109375 L 1181.121094 1364.109375 L 1181.121094 1359.691406 L 1527.488281 1359.691406 L 1527.488281 1364.109375 "/>
<path fill-rule="evenodd" fill="rgb(80.076599%, 80.076599%, 80.076599%)" fill-opacity="1" d="M 1532.429688 1386.800781 L 1186.050781 1386.800781 C 1184.941406 1385.378906 1183.988281 1383.898438 1183.238281 1382.371094 L 1529.621094 1382.371094 C 1530.371094 1383.898438 1531.320312 1385.378906 1532.429688 1386.800781 "/>
<path fill-rule="evenodd" fill="rgb(80.076599%, 80.076599%, 80.076599%)" fill-opacity="1" d="M 1547.359375 1397.859375 L 1200.980469 1397.859375 C 1198.128906 1396.570312 1195.511719 1395.089844 1193.179688 1393.441406 L 1539.558594 1393.441406 C 1541.890625 1395.089844 1544.511719 1396.570312 1547.359375 1397.859375 "/>
<path fill-rule="evenodd" fill="rgb(75.78125%, 45.092773%, 63.867188%)" fill-opacity="1" d="M 960.441406 1412.25 C 970.703125 1417.769531 983.953125 1421.105469 998.371094 1421.105469 L 1588.050781 1421.105469 L 1588.050781 1412.25 L 960.441406 1412.25 "/>
<path fill-rule="evenodd" fill="rgb(50.976562%, 22.338867%, 43.920898%)" fill-opacity="1" d="M 960.441406 1412.25 C 970.703125 1417.769531 983.953125 1421.105469 998.371094 1421.105469 L 1146.121094 1421.105469 C 1135.691406 1421.105469 1125.871094 1419.359375 1117.351562 1416.304688 C 1114.089844 1415.136719 1111.03125 1413.777344 1108.191406 1412.25 L 960.441406 1412.25 "/>
<path fill-rule="evenodd" fill="rgb(75.78125%, 45.092773%, 63.867188%)" fill-opacity="1" d="M 1024.089844 1421.105469 L 1095.558594 1421.105469 C 1082.609375 1421.105469 1070.851562 1417.710938 1062.378906 1412.25 L 990.902344 1412.25 C 999.375 1417.710938 1037.039062 1421.105469 1024.089844 1421.105469 "/>
<path fill-rule="evenodd" fill="rgb(75.78125%, 45.092773%, 63.867188%)" fill-opacity="1" d="M 1024.089844 1421.105469 C 1037.039062 1421.105469 999.375 1417.710938 990.902344 1412.25 L 896.402344 1412.25 C 906.664062 1417.769531 919.914062 1421.105469 934.335938 1421.105469 L 1024.089844 1421.105469 "/>
<path fill-rule="evenodd" fill="rgb(58.006287%, 26.660156%, 50.193787%)" fill-opacity="1" d="M 983.0625 1319.019531 C 983.0625 1298.480469 1009.539062 1281.671875 1041.898438 1281.671875 L 991.34375 1281.671875 C 965.691406 1281.671875 944.710938 1294.988281 944.710938 1311.269531 L 944.710938 1391.5 C 944.710938 1407.785156 965.691406 1421.105469 991.34375 1421.105469 L 1041.898438 1421.105469 C 1009.539062 1421.105469 983.0625 1404.300781 983.0625 1383.761719 L 983.0625 1319.019531 "/>
<path fill-rule="evenodd" fill="rgb(50.976562%, 22.338867%, 43.920898%)" fill-opacity="1" d="M 960.441406 1412.25 L 1003.96875 1412.25 C 1014.230469 1417.769531 1027.480469 1421.105469 1041.898438 1421.105469 L 991.34375 1421.105469 C 978.390625 1421.105469 966.628906 1417.710938 958.15625 1412.25 L 960.441406 1412.25 "/>
<path fill-rule="evenodd" fill="rgb(93.75%, 29.417419%, 29.026794%)" fill-opacity="1" d="M 898.894531 1662.058594 L 1259.769531 1662.058594 C 1282.488281 1662.058594 1301.070312 1677.835938 1301.070312 1697.109375 L 1301.070312 1757.867188 C 1301.070312 1777.144531 1282.488281 1792.921875 1259.769531 1792.921875 L 898.894531 1792.921875 C 876.179688 1792.921875 857.597656 1777.144531 857.597656 1757.867188 L 857.597656 1697.109375 C 857.597656 1677.832031 876.183594 1662.058594 898.894531 1662.058594 "/>
<path fill-rule="evenodd" fill="rgb(93.75%, 29.417419%, 29.026794%)" fill-opacity="1" d="M 1027.359375 1662.058594 L 1357.738281 1662.058594 L 1357.738281 1678.675781 L 1027.359375 1678.675781 L 1027.359375 1662.058594 "/>
<path fill-rule="evenodd" fill="rgb(90.234375%, 90.234375%, 90.234375%)" fill-opacity="1" d="M 1105.148438 1678.675781 L 1338.859375 1678.675781 C 1340.460938 1678.675781 1342.03125 1678.777344 1343.570312 1678.964844 C 1327.609375 1680.917969 1315.238281 1692.648438 1315.238281 1706.71875 L 1315.238281 1748.261719 C 1315.238281 1762.328125 1327.609375 1774.0625 1343.570312 1776.015625 C 1342.03125 1776.203125 1340.460938 1776.300781 1338.859375 1776.300781 L 1105.148438 1776.300781 C 1086.980469 1776.300781 1072.109375 1763.683594 1072.109375 1748.261719 L 1072.109375 1706.71875 C 1072.109375 1691.296875 1086.980469 1678.675781 1105.148438 1678.675781 "/>
<path fill-rule="evenodd" fill="rgb(93.75%, 29.417419%, 29.026794%)" fill-opacity="1" d="M 1027.359375 1776.300781 L 1357.738281 1776.300781 L 1357.738281 1792.921875 L 1027.359375 1792.921875 L 1027.359375 1776.300781 "/>
<path fill-rule="evenodd" fill="rgb(73.631287%, 16.479492%, 20.384216%)" fill-opacity="1" d="M 1006.25 1697.109375 C 1006.25 1677.832031 1024.828125 1662.058594 1047.550781 1662.058594 L 1012.058594 1662.058594 C 994.058594 1662.058594 979.328125 1674.5625 979.328125 1689.839844 L 979.328125 1765.136719 C 979.328125 1780.417969 994.058594 1792.921875 1012.058594 1792.921875 L 1047.550781 1792.921875 C 1024.828125 1792.921875 1006.25 1777.144531 1006.25 1757.867188 L 1006.25 1697.109375 "/>
<path fill-rule="evenodd" fill="rgb(80.076599%, 80.076599%, 80.076599%)" fill-opacity="1" d="M 1323.171875 1688.539062 L 1080.039062 1688.539062 C 1081.589844 1687.003906 1083.328125 1685.609375 1085.230469 1684.386719 L 1328.359375 1684.386719 C 1326.460938 1685.609375 1324.71875 1687.003906 1323.171875 1688.539062 "/>
<path fill-rule="evenodd" fill="rgb(80.076599%, 80.076599%, 80.076599%)" fill-opacity="1" d="M 1315.238281 1708.792969 L 1072.109375 1708.792969 L 1072.109375 1706.71875 C 1072.109375 1706.019531 1072.140625 1705.324219 1072.199219 1704.640625 L 1315.328125 1704.640625 C 1315.269531 1705.324219 1315.238281 1706.019531 1315.238281 1706.71875 L 1315.238281 1708.792969 "/>
<path fill-rule="evenodd" fill="rgb(80.076599%, 80.076599%, 80.076599%)" fill-opacity="1" d="M 1315.238281 1724.371094 L 1072.109375 1724.371094 L 1072.109375 1720.21875 L 1315.238281 1720.21875 L 1315.238281 1724.371094 "/>
<path fill-rule="evenodd" fill="rgb(80.076599%, 80.076599%, 80.076599%)" fill-opacity="1" d="M 1315.238281 1739.429688 L 1072.109375 1739.429688 L 1072.109375 1735.277344 L 1315.238281 1735.277344 L 1315.238281 1739.429688 "/>
<path fill-rule="evenodd" fill="rgb(80.076599%, 80.076599%, 80.076599%)" fill-opacity="1" d="M 1318.699219 1760.722656 L 1075.578125 1760.722656 C 1074.789062 1759.390625 1074.128906 1758.003906 1073.601562 1756.566406 L 1316.730469 1756.566406 C 1317.25 1758.003906 1317.921875 1759.394531 1318.699219 1760.722656 "/>
<path fill-rule="evenodd" fill="rgb(80.076599%, 80.076599%, 80.076599%)" fill-opacity="1" d="M 1329.179688 1771.105469 L 1086.050781 1771.105469 C 1084.050781 1769.898438 1082.210938 1768.503906 1080.578125 1766.953125 L 1323.699219 1766.953125 C 1325.339844 1768.503906 1327.179688 1769.898438 1329.179688 1771.105469 "/>
<path fill-rule="evenodd" fill="rgb(85.9375%, 26.660156%, 26.660156%)" fill-opacity="1" d="M 917.21875 1784.609375 C 924.421875 1789.785156 933.722656 1792.921875 943.84375 1792.921875 L 1357.738281 1792.921875 L 1357.738281 1784.609375 L 917.21875 1784.609375 "/>
<path fill-rule="evenodd" fill="rgb(65.818787%, 14.109802%, 17.259216%)" fill-opacity="1" d="M 917.21875 1784.609375 C 924.421875 1789.785156 933.722656 1792.921875 943.84375 1792.921875 L 1047.550781 1792.921875 C 1040.230469 1792.921875 1033.328125 1791.28125 1027.359375 1788.414062 C 1025.070312 1787.316406 1022.910156 1786.042969 1020.921875 1784.609375 L 917.21875 1784.609375 "/>
<path fill-rule="evenodd" fill="rgb(85.9375%, 26.660156%, 26.660156%)" fill-opacity="1" d="M 961.890625 1792.921875 L 1012.058594 1792.921875 C 1002.96875 1792.921875 994.714844 1789.730469 988.769531 1784.609375 L 938.601562 1784.609375 C 944.546875 1789.730469 970.980469 1792.921875 961.890625 1792.921875 "/>
<path fill-rule="evenodd" fill="rgb(85.9375%, 26.660156%, 26.660156%)" fill-opacity="1" d="M 961.890625 1792.921875 C 970.980469 1792.921875 944.546875 1789.730469 938.601562 1784.609375 L 872.269531 1784.609375 C 879.472656 1789.785156 888.773438 1792.921875 898.894531 1792.921875 L 961.890625 1792.921875 "/>
<path fill-rule="evenodd" fill="rgb(73.631287%, 16.479492%, 20.384216%)" fill-opacity="1" d="M 933.097656 1697.109375 C 933.097656 1677.832031 951.679688 1662.058594 974.394531 1662.058594 L 938.90625 1662.058594 C 920.90625 1662.058594 906.175781 1674.5625 906.175781 1689.839844 L 906.175781 1765.136719 C 906.175781 1780.417969 920.90625 1792.921875 938.90625 1792.921875 L 974.394531 1792.921875 C 951.679688 1792.921875 933.097656 1777.144531 933.097656 1757.867188 L 933.097656 1697.109375 "/>
<path fill-rule="evenodd" fill="rgb(65.818787%, 14.109802%, 17.259216%)" fill-opacity="1" d="M 917.21875 1784.609375 L 947.769531 1784.609375 C 954.972656 1789.785156 964.273438 1792.921875 974.394531 1792.921875 L 938.90625 1792.921875 C 929.816406 1792.921875 921.5625 1789.730469 915.617188 1784.609375 L 917.21875 1784.609375 "/>
<path fill-rule="evenodd" fill="rgb(72.851562%, 78.90625%, 32.151794%)" fill-opacity="1" d="M 1272.96875 1072.011719 C 1263.710938 1072.011719 1256.140625 1079.578125 1256.140625 1088.828125 L 1256.140625 1150.019531 C 1256.140625 1159.269531 1263.710938 1166.839844 1272.96875 1166.839844 C 1282.21875 1166.839844 1289.789062 1159.269531 1289.789062 1150.019531 L 1289.789062 1088.828125 C 1289.789062 1079.578125 1282.21875 1072.011719 1272.96875 1072.011719 "/>
<path fill-rule="evenodd" fill="rgb(72.851562%, 78.90625%, 32.151794%)" fill-opacity="1" d="M 1336.890625 941.839844 C 1317 941.839844 1300.71875 958.121094 1300.71875 978.011719 L 1300.71875 1171.480469 C 1300.71875 1191.371094 1317 1207.648438 1336.890625 1207.648438 C 1356.789062 1207.648438 1373.058594 1191.371094 1373.058594 1171.480469 L 1373.058594 978.011719 C 1373.058594 958.121094 1356.789062 941.839844 1336.890625 941.839844 "/>
<path fill-rule="evenodd" fill="rgb(72.851562%, 78.90625%, 32.151794%)" fill-opacity="1" d="M 1253.621094 912.828125 C 1244.371094 912.828125 1236.800781 920.398438 1236.800781 929.660156 L 1236.800781 1019.640625 C 1236.800781 1028.898438 1244.371094 1036.46875 1253.621094 1036.46875 C 1262.871094 1036.46875 1270.441406 1028.898438 1270.441406 1019.640625 L 1270.441406 929.660156 C 1270.441406 920.398438 1262.871094 912.828125 1253.621094 912.828125 "/>
<path fill-rule="evenodd" fill="rgb(72.851562%, 78.90625%, 32.151794%)" fill-opacity="1" d="M 1319.640625 1019.640625 C 1319.640625 1010.390625 1312.070312 1002.820312 1302.820312 1002.820312 L 1253.621094 1002.820312 C 1244.371094 1002.820312 1236.800781 1010.390625 1236.800781 1019.640625 C 1236.800781 1028.898438 1244.371094 1036.46875 1253.621094 1036.46875 L 1302.820312 1036.46875 C 1312.070312 1036.46875 1319.640625 1028.898438 1319.640625 1019.640625 "/>
<path fill-rule="evenodd" fill="rgb(72.851562%, 78.90625%, 32.151794%)" fill-opacity="1" d="M 1410.390625 1008.398438 C 1401.140625 1008.398438 1393.570312 1015.96875 1393.570312 1025.230469 L 1393.570312 1066.648438 C 1393.570312 1075.898438 1401.140625 1083.46875 1410.390625 1083.46875 C 1419.640625 1083.46875 1427.210938 1075.898438 1427.210938 1066.648438 L 1427.210938 1025.230469 C 1427.210938 1015.96875 1419.640625 1008.398438 1410.390625 1008.398438 "/>
<path fill-rule="evenodd" fill="rgb(72.851562%, 78.90625%, 32.151794%)" fill-opacity="1" d="M 1427.210938 1066.648438 C 1427.210938 1057.390625 1419.640625 1049.820312 1410.390625 1049.820312 L 1361.191406 1049.820312 C 1351.941406 1049.820312 1344.371094 1057.390625 1344.371094 1066.648438 C 1344.371094 1075.898438 1351.941406 1083.46875 1361.191406 1083.46875 L 1410.390625 1083.46875 C 1419.640625 1083.46875 1427.210938 1075.898438 1427.210938 1066.648438 "/>
<path fill-rule="evenodd" fill="rgb(72.851562%, 43.920898%, 23.535156%)" fill-opacity="1" d="M 1419.828125 1150.628906 L 1406.710938 1261.300781 L 1257.96875 1261.300781 L 1244.839844 1150.628906 L 1325.460938 1142.480469 L 1419.828125 1150.628906 "/>
<path fill-rule="evenodd" fill="rgb(81.25%, 52.929688%, 32.542419%)" fill-opacity="1" d="M 1428.578125 1130.261719 L 1236.089844 1130.261719 L 1236.089844 1150.628906 L 1428.578125 1150.628906 L 1428.578125 1130.261719 "/>
<path fill-rule="evenodd" fill="rgb(81.25%, 52.929688%, 32.542419%)" fill-opacity="1" d="M 1406.710938 1261.300781 L 1257.96875 1261.300781 L 1257.96875 1281.671875 L 1406.710938 1281.671875 L 1406.710938 1261.300781 "/>
<path fill-rule="evenodd" fill="rgb(9.397888%, 20.776367%, 36.863708%)" fill-opacity="1" d="M 1792.910156 1527.136719 C 1795.601562 1529.941406 1805.941406 1546.050781 1805.941406 1546.050781 C 1815.789062 1557.527344 1824.921875 1568.828125 1838.339844 1576.15625 C 1841.21875 1577.730469 1844.050781 1579.296875 1846.421875 1580.820312 C 1850.480469 1583.429688 1853.789062 1590.738281 1847.171875 1593.703125 C 1833.371094 1599.886719 1805.199219 1583.613281 1791.671875 1578.34375 C 1787.5 1576.714844 1783.199219 1575.46875 1778.960938 1574.035156 C 1772.441406 1571.828125 1763.621094 1569.527344 1758.121094 1565.511719 C 1749.761719 1559.40625 1754.03125 1554.554688 1763.980469 1538.972656 C 1765.5 1536.59375 1766.558594 1534.125 1766.371094 1530.707031 L 1774.230469 1529.40625 L 1780.5 1527.109375 L 1792.910156 1527.136719 "/>
<path fill-rule="evenodd" fill="rgb(100%, 54.881287%, 0%)" fill-opacity="1" d="M 1603.050781 1345.648438 C 1579.730469 1493.992188 1705.921875 1429.523438 1815.75 1382.261719 C 1832.890625 1375.980469 1861.589844 1372.039062 1854.710938 1348.160156 C 1845.378906 1315.71875 1802.421875 1328.519531 1765.609375 1331.730469 L 1741.609375 1334.019531 L 1603.050781 1345.648438 "/>
<path fill-rule="evenodd" fill="rgb(100%, 54.881287%, 0%)" fill-opacity="1" d="M 1855.5 1358.039062 C 1844.988281 1396.789062 1832.089844 1433.300781 1820.648438 1470.691406 C 1816.550781 1484.105469 1812.628906 1497.632812 1809.070312 1511.421875 L 1803.519531 1531.867188 C 1782.320312 1544.613281 1767.671875 1545.164062 1762.519531 1530.136719 C 1769.011719 1492.765625 1803.089844 1366.941406 1806.929688 1329.199219 L 1822.429688 1343.898438 C 1822.429688 1343.898438 1826.640625 1359.46875 1833.179688 1358.230469 C 1839.71875 1356.980469 1842.148438 1354.648438 1843.78125 1353.71875 C 1845.410156 1352.789062 1855.5 1358.039062 1855.5 1358.039062 "/>
<path fill-rule="evenodd" fill="rgb(18.041992%, 32.151794%, 51.756287%)" fill-opacity="1" d="M 1576.53125 1169.839844 L 1506.070312 1153.308594 L 1476.078125 1158.011719 C 1442.730469 1178.308594 1468.640625 1185.871094 1501.171875 1197.171875 C 1519.769531 1203.621094 1545.769531 1222.289062 1566.320312 1228.398438 C 1573.53125 1230.539062 1581.210938 1234.710938 1587.769531 1236.148438 C 1644.800781 1248.671875 1650.058594 1184.859375 1576.53125 1169.839844 "/>
<path fill-rule="evenodd" fill="rgb(100%, 74.804688%, 0%)" fill-opacity="1" d="M 1643.121094 1172.808594 C 1626.738281 1171.570312 1601.351562 1174.671875 1585.910156 1177.199219 C 1580.210938 1179.308594 1590.390625 1181.929688 1586.128906 1185.621094 C 1577.078125 1193.449219 1594.070312 1217.511719 1591.550781 1233.46875 C 1608.761719 1302.941406 1596.519531 1294.359375 1591.058594 1360.328125 C 1620.691406 1394.699219 1673.710938 1362.601562 1721.910156 1335.671875 C 1705.929688 1243.351562 1740.679688 1146.230469 1643.121094 1172.808594 "/>
<path fill-rule="evenodd" fill="rgb(94.921875%, 74.414062%, 59.959412%)" fill-opacity="1" d="M 1634.699219 1138.519531 L 1662.589844 1154.960938 L 1663.121094 1170.75 L 1647.050781 1182.789062 L 1624.730469 1180.660156 L 1617.429688 1152.878906 L 1634.699219 1138.519531 "/>
<path fill-rule="evenodd" fill="rgb(94.921875%, 74.414062%, 59.959412%)" fill-opacity="1" d="M 1661.789062 1169.410156 L 1640.160156 1163.75 L 1625.230469 1174.960938 L 1623.359375 1178.46875 C 1640.328125 1187.289062 1658.878906 1184.71875 1661.789062 1169.410156 "/>
<path fill-rule="evenodd" fill="rgb(24.705505%, 10.984802%, 18.821716%)" fill-opacity="1" d="M 1663.929688 1096.96875 C 1670.761719 1105.671875 1673.109375 1141.730469 1667.789062 1130.488281 L 1662.171875 1118.601562 L 1659.019531 1104.53125 L 1657.109375 1095.921875 L 1663.929688 1096.96875 "/>
<path fill-rule="evenodd" fill="rgb(98.826599%, 89.0625%, 76.951599%)" fill-opacity="1" d="M 1608.398438 1140.289062 C 1611.539062 1147.800781 1614.628906 1156.519531 1619.808594 1162.640625 C 1629.089844 1173.621094 1643.410156 1177.960938 1657.460938 1167.410156 C 1657.878906 1167.089844 1658.289062 1166.769531 1658.671875 1166.429688 C 1667.488281 1158.660156 1668.429688 1145.429688 1667.550781 1136.789062 C 1667.488281 1136.121094 1667.550781 1135.460938 1667.550781 1134.820312 C 1667.339844 1121.371094 1666.75 1111.691406 1660.410156 1102.820312 C 1649.339844 1087.308594 1616.128906 1083.011719 1607.378906 1106.511719 C 1602.839844 1118.710938 1606.148438 1128.148438 1608.398438 1140.289062 "/>
<path fill-rule="evenodd" fill="rgb(24.705505%, 10.984802%, 18.821716%)" fill-opacity="1" d="M 1606.671875 1131.710938 C 1605.640625 1126.558594 1604.851562 1121.691406 1605.191406 1116.570312 L 1602.261719 1119.550781 L 1602.949219 1128.128906 C 1603.898438 1128.648438 1604.96875 1129.589844 1606.160156 1131.070312 C 1606.328125 1131.28125 1606.5 1131.488281 1606.671875 1131.710938 "/>
<path fill-rule="evenodd" fill="rgb(24.705505%, 10.984802%, 18.821716%)" fill-opacity="1" d="M 1606.199219 1116.679688 C 1613.339844 1098.460938 1640.300781 1102.429688 1656.628906 1101.859375 C 1676.601562 1111.109375 1681.339844 1072.160156 1660.421875 1065.25 C 1656.28125 1063.878906 1641.550781 1082.871094 1641.871094 1076.398438 C 1642.238281 1068.890625 1633.898438 1064.828125 1612.859375 1085.019531 C 1598.789062 1097.171875 1598.738281 1115.738281 1602.949219 1128.128906 L 1606.199219 1116.679688 "/>
<path fill-rule="evenodd" fill="rgb(24.705505%, 10.984802%, 18.821716%)" fill-opacity="1" d="M 1606.671875 1108.601562 C 1606.398438 1108.511719 1616.488281 1124.289062 1606.671875 1131.710938 L 1605.710938 1129.511719 L 1603.730469 1118.058594 L 1606.671875 1108.601562 "/>
<path fill-rule="evenodd" fill="rgb(98.826599%, 89.0625%, 76.951599%)" fill-opacity="1" d="M 1609.628906 1143.679688 L 1614.699219 1144.140625 L 1612.308594 1139.238281 C 1611.699219 1138.421875 1608.640625 1134.148438 1606.160156 1131.070312 C 1596.75 1119.371094 1594.011719 1141.101562 1609.628906 1143.679688 "/>
<path fill-rule="evenodd" fill="rgb(98.826599%, 89.0625%, 76.951599%)" fill-opacity="1" d="M 1665.941406 1135.71875 L 1666.449219 1127.109375 C 1667.828125 1120.640625 1672.320312 1118.859375 1672.558594 1126.058594 C 1672.910156 1136.539062 1671.070312 1135.53125 1666.660156 1141.058594 L 1665.941406 1135.71875 "/>
<path fill-rule="evenodd" fill="rgb(24.705505%, 10.984802%, 18.821716%)" fill-opacity="1" d="M 1604.269531 1099.378906 C 1619.261719 1106.308594 1652.039062 1121.261719 1666.390625 1102.910156 L 1667.488281 1097.359375 L 1651.578125 1082.921875 L 1636.949219 1086.898438 C 1636.949219 1086.898438 1623.820312 1090.769531 1622.398438 1091.171875 C 1620.980469 1091.578125 1604.269531 1099.378906 1604.269531 1099.378906 "/>
<path fill-rule="evenodd" fill="rgb(24.705505%, 10.984802%, 18.821716%)" fill-opacity="1" d="M 1627.839844 1094.359375 C 1624.269531 1104.46875 1616.410156 1126.449219 1604.429688 1118.191406 L 1602.089844 1114.578125 L 1603.449219 1098.738281 L 1610.609375 1096.589844 C 1610.609375 1096.589844 1617.140625 1094.871094 1617.839844 1094.671875 C 1618.539062 1094.46875 1627.839844 1094.359375 1627.839844 1094.359375 "/>
<path fill-rule="evenodd" fill="rgb(98.826599%, 89.0625%, 76.951599%)" fill-opacity="1" d="M 1475.089844 1183.148438 C 1446.609375 1187.210938 1474.738281 1081.761719 1476.910156 1054.410156 L 1494.269531 1057.121094 L 1498.941406 1153.839844 L 1475.089844 1183.148438 "/>
<path fill-rule="evenodd" fill="rgb(30.979919%, 44.309998%, 70.896912%)" fill-opacity="1" d="M 1459.199219 1114.46875 C 1457.410156 1119.121094 1458.050781 1121.75 1460.21875 1122.96875 C 1469.488281 1128.191406 1529.640625 1095.960938 1498.621094 1098.21875 C 1497.28125 1098.320312 1462.820312 1113.058594 1459.199219 1114.46875 "/>
<path fill-rule="evenodd" fill="rgb(18.041992%, 32.151794%, 51.756287%)" fill-opacity="1" d="M 1505.929688 1103.371094 C 1495.449219 1110.398438 1466.78125 1121.738281 1458.820312 1121.660156 C 1457.699219 1131.71875 1455.5 1153.570312 1455.859375 1163.390625 C 1456.199219 1172.371094 1458.96875 1169.53125 1460.449219 1174.871094 C 1462.480469 1182.238281 1471.511719 1185.628906 1477.730469 1184.738281 L 1506.070312 1153.308594 L 1510.78125 1131.960938 L 1507.761719 1127.628906 L 1511.378906 1120.089844 L 1505.929688 1103.371094 "/>
<path fill-rule="evenodd" fill="rgb(9.397888%, 20.776367%, 36.863708%)" fill-opacity="1" d="M 1687.878906 1336.199219 L 1690.160156 1345.46875 L 1724.328125 1330.800781 L 1731.839844 1325.371094 L 1729.070312 1316.480469 L 1687.878906 1336.199219 "/>
<path fill-rule="evenodd" fill="rgb(18.041992%, 32.151794%, 51.756287%)" fill-opacity="1" d="M 1720.820312 1274.710938 L 1715.28125 1220.578125 C 1713.410156 1202.289062 1707.789062 1179.199219 1690.320312 1167.398438 C 1681.851562 1160.769531 1676.898438 1168.128906 1661.789062 1169.410156 C 1660.949219 1173.820312 1658.820312 1177.171875 1655.800781 1179.5 L 1682.628906 1318.339844 L 1685.78125 1339.839844 L 1710.019531 1333.738281 C 1733.988281 1320.460938 1719.628906 1335.738281 1737.019531 1308.121094 L 1733.660156 1301.449219 L 1728.539062 1300.328125 L 1722.851562 1281.460938 L 1720.820312 1274.710938 "/>
<path fill-rule="evenodd" fill="rgb(9.397888%, 20.776367%, 36.863708%)" fill-opacity="1" d="M 1650.121094 1348.679688 L 1648.53125 1357.371094 C 1627.308594 1363.53125 1612.460938 1367.890625 1590.238281 1369.828125 L 1585.421875 1362.261719 L 1650.121094 1348.679688 "/>
<path fill-rule="evenodd" fill="rgb(9.397888%, 20.776367%, 36.863708%)" fill-opacity="1" d="M 1655.800781 1179.5 C 1660.550781 1177.761719 1666.480469 1175.839844 1666.191406 1170 C 1666.109375 1168.480469 1665.300781 1167.328125 1662.96875 1167.589844 C 1660.179688 1167.898438 1660.179688 1169.898438 1658.53125 1173.328125 C 1657.550781 1175.378906 1656.539062 1177.191406 1655.800781 1179.5 "/>
<path fill-rule="evenodd" fill="rgb(98.826599%, 89.0625%, 76.951599%)" fill-opacity="1" d="M 594.621094 1198.371094 L 601.019531 1186.75 L 605.738281 1180.769531 L 611.269531 1174.769531 L 613.210938 1171.378906 L 614.84375 1166.851562 L 612.878906 1164.109375 L 611.078125 1162.761719 L 612.972656 1159.179688 L 611.835938 1154.988281 L 606.527344 1152.75 L 602.273438 1150.628906 L 598.992188 1150.601562 C 598.992188 1150.601562 593.746094 1152.738281 592.820312 1153.089844 C 591.894531 1153.441406 584.90625 1155.949219 584.90625 1155.949219 L 583.140625 1157.351562 L 580.867188 1165.941406 L 577.171875 1191.449219 L 576.882812 1193.789062 C 582.84375 1200.921875 585.808594 1201.390625 594.621094 1198.371094 "/>
<path fill-rule="evenodd" fill="rgb(98.826599%, 89.0625%, 76.951599%)" fill-opacity="1" d="M 612.023438 1160.96875 L 612.972656 1159.179688 L 625.371094 1142.019531 C 631.730469 1131.609375 623.027344 1131.578125 617.921875 1139.28125 L 611.03125 1149.660156 L 606.570312 1155.371094 L 606.527344 1152.75 L 612.710938 1135.761719 C 616.25 1126.03125 609.9375 1119.550781 604.25 1136.46875 L 602.167969 1142.671875 L 598.296875 1153.648438 L 597.320312 1157.390625 L 599.125 1162.390625 L 606.445312 1165.859375 L 612.023438 1160.96875 "/>
<path fill-rule="evenodd" fill="rgb(98.826599%, 89.0625%, 76.951599%)" fill-opacity="1" d="M 798.320312 1185.488281 L 795.238281 1172.589844 L 792.28125 1165.570312 L 788.539062 1158.320312 L 787.566406 1154.539062 L 787.195312 1149.730469 L 789.820312 1147.621094 L 791.914062 1146.789062 L 791.039062 1142.839844 L 793.25 1139.101562 L 798.964844 1138.351562 L 803.625 1137.441406 L 806.796875 1138.28125 C 806.796875 1138.28125 811.285156 1141.738281 812.085938 1142.320312 C 812.882812 1142.910156 818.953125 1147.179688 818.953125 1147.179688 L 820.285156 1149 L 820.195312 1157.878906 L 816.980469 1183.460938 L 816.636719 1185.789062 C 808.996094 1191.078125 806.011719 1190.75 798.320312 1185.488281 "/>
<path fill-rule="evenodd" fill="rgb(98.826599%, 89.0625%, 76.951599%)" fill-opacity="1" d="M 791.476562 1144.820312 L 791.039062 1142.839844 L 783.644531 1123 C 780.28125 1111.269531 788.675781 1113.558594 791.558594 1122.339844 L 795.4375 1134.179688 L 798.222656 1140.871094 L 798.964844 1138.351562 L 797.515625 1120.328125 C 796.6875 1110.011719 804.496094 1105.441406 805.480469 1123.261719 L 805.84375 1129.800781 L 806.65625 1141.398438 L 806.605469 1145.269531 L 803.535156 1149.609375 L 795.558594 1151.011719 L 791.476562 1144.820312 "/>
<path fill-rule="evenodd" fill="rgb(19.993591%, 9.008789%, 32.151794%)" fill-opacity="1" d="M 607.636719 1767.402344 C 604.800781 1768.628906 592.269531 1777.246094 592.269531 1777.246094 C 581.527344 1782.625 571.359375 1788.089844 559.277344 1789.332031 C 556.683594 1789.597656 554.121094 1789.871094 551.921875 1790.257812 C 548.144531 1790.921875 543.46875 1795.257812 547.40625 1799.46875 C 555.613281 1808.242188 581.253906 1804.988281 592.785156 1805.289062 C 596.34375 1805.382812 599.878906 1805.796875 603.421875 1806.050781 C 608.875 1806.4375 616.042969 1807.46875 621.304688 1806.21875 C 635.953125 1802.742188 619.800781 1776.503906 620.625 1774.8125 L 616.734375 1771.203125 L 607.636719 1767.402344 "/>
<path fill-rule="evenodd" fill="rgb(24.705505%, 10.984802%, 18.821716%)" fill-opacity="1" d="M 692.21875 1207.808594 C 674.910156 1164.421875 727.046875 1147.660156 740.523438 1200.730469 C 736.164062 1197.550781 733.527344 1195.628906 731.789062 1194.71875 C 727.007812 1192.210938 729.042969 1197.328125 720.695312 1204.660156 C 717.761719 1207.238281 712.921875 1209.519531 700.6875 1213.421875 L 692.21875 1207.808594 "/>
<path fill-rule="evenodd" fill="rgb(93.359375%, 38.035583%, 44.309998%)" fill-opacity="1" d="M 677.328125 1207.078125 C 677.328125 1207.078125 700.511719 1192.5 709.160156 1218.429688 C 717.8125 1244.371094 691.886719 1226.890625 691.886719 1226.890625 L 678.238281 1223.140625 L 677.328125 1207.078125 "/>
<path fill-rule="evenodd" fill="rgb(24.705505%, 10.984802%, 18.821716%)" fill-opacity="1" d="M 638.441406 1332.398438 C 628.300781 1333.359375 615.371094 1305.550781 633.796875 1262.058594 C 643.332031 1239.550781 653.546875 1204.78125 681.316406 1206 C 686.078125 1206.210938 691.3125 1207.28125 697.066406 1209.359375 C 706.195312 1212.648438 712.375 1219.21875 717.316406 1227.179688 C 763.433594 1301.488281 814.050781 1335.140625 689.167969 1329.148438 C 672.484375 1328.351562 655.148438 1332 638.441406 1332.398438 "/>
<path fill-rule="evenodd" fill="rgb(85.15625%, 30.200195%, 41.575623%)" fill-opacity="1" d="M 549.320312 1280.570312 L 533.476562 1276.839844 C 504.796875 1288.679688 525.472656 1301.660156 549.953125 1318.609375 C 570.414062 1332.789062 593.816406 1348.308594 614.410156 1363.199219 C 646.457031 1386.628906 667.714844 1358.378906 653.539062 1329.609375 C 643.503906 1309.25 580.5 1297.71875 549.320312 1280.570312 "/>
<path fill-rule="evenodd" fill="rgb(94.921875%, 74.414062%, 59.959412%)" fill-opacity="1" d="M 666.167969 1287.550781 L 664.351562 1310.640625 C 664.351562 1310.640625 682.109375 1312.691406 683.476562 1312.699219 C 684.84375 1312.710938 706.671875 1311.519531 706.671875 1311.519531 C 700.820312 1300.460938 699.371094 1285.949219 700.074219 1269.761719 L 680.480469 1275.21875 L 666.167969 1287.550781 "/>
<path fill-rule="evenodd" fill="rgb(98.826599%, 89.0625%, 76.951599%)" fill-opacity="1" d="M 653.253906 1263.179688 C 653.746094 1276.230469 652.671875 1288.851562 665.023438 1296.671875 C 681.996094 1307.429688 701.675781 1284.628906 702.800781 1268.859375 C 703.320312 1261.589844 705.003906 1255.539062 703.378906 1249.628906 C 702.109375 1245.019531 699.304688 1240.550781 693.949219 1235.839844 C 688.667969 1231.210938 682.429688 1228.710938 675.136719 1229.941406 C 655.691406 1233.230469 656.089844 1247.640625 653.253906 1263.179688 "/>
<path fill-rule="evenodd" fill="rgb(98.826599%, 89.0625%, 76.951599%)" fill-opacity="1" d="M 656.003906 1261.511719 C 655.179688 1260.609375 654.5 1259.808594 653.921875 1259.140625 C 648.722656 1253.109375 648.503906 1260.351562 649.175781 1266.050781 C 649.824219 1271.558594 650.945312 1274.738281 656.304688 1276.699219 L 657.101562 1273.730469 C 657.101562 1273.730469 656.003906 1269.308594 656.007812 1268.480469 C 656.015625 1267.648438 656.003906 1261.511719 656.003906 1261.511719 "/>
<path fill-rule="evenodd" fill="rgb(98.826599%, 89.0625%, 76.951599%)" fill-opacity="1" d="M 708.070312 1258.140625 C 709.273438 1258.910156 710.226562 1260.710938 710.707031 1263.671875 C 711.691406 1269.730469 708.28125 1272.179688 703.867188 1274.460938 C 702.5625 1275.128906 701.167969 1275.789062 699.773438 1276.519531 L 696.632812 1276.5 C 697.511719 1272.46875 701.324219 1253.800781 708.070312 1258.140625 "/>
<path fill-rule="evenodd" fill="rgb(24.705505%, 10.984802%, 18.821716%)" fill-opacity="1" d="M 681.492188 1228.609375 C 689.511719 1240.671875 701.851562 1256.539062 718.789062 1252.871094 L 718.691406 1240.640625 C 718.691406 1240.640625 708.203125 1227.460938 707.03125 1227.210938 C 705.863281 1226.96875 695.535156 1222.78125 694.480469 1222.96875 C 693.421875 1223.160156 681.492188 1228.609375 681.492188 1228.609375 "/>
<path fill-rule="evenodd" fill="rgb(24.705505%, 10.984802%, 18.821716%)" fill-opacity="1" d="M 694.214844 1228.480469 C 688.085938 1239.230469 665.390625 1245.359375 651.765625 1246.339844 L 652.410156 1238.839844 L 659.941406 1228.089844 C 659.941406 1228.089844 664.128906 1225.089844 664.640625 1225.101562 C 665.148438 1225.101562 673.183594 1224.640625 673.183594 1224.640625 L 694.214844 1228.480469 "/>
<path fill-rule="evenodd" fill="rgb(19.993591%, 9.008789%, 32.151794%)" fill-opacity="1" d="M 828.210938 1543.589844 C 831.339844 1543.210938 846.109375 1538.433594 846.109375 1538.433594 C 858.183594 1536.296875 869.71875 1533.910156 881.902344 1536.214844 C 884.519531 1536.710938 887.105469 1537.1875 889.367188 1537.449219 C 893.253906 1537.902344 899.09375 1535.023438 896.464844 1529.757812 C 890.992188 1518.78125 864.964844 1514.5 853.769531 1510.847656 C 850.316406 1509.71875 846.976562 1508.285156 843.585938 1507.007812 C 838.363281 1505.039062 831.648438 1501.945312 826.140625 1501.636719 C 817.757812 1501.164062 817.933594 1506.398438 816.160156 1521.289062 C 815.890625 1523.5625 815.28125 1525.652344 813.40625 1527.695312 L 817.664062 1532.554688 L 820.414062 1537.222656 L 828.210938 1543.589844 "/>
<path fill-rule="evenodd" fill="rgb(85.15625%, 30.200195%, 41.575623%)" fill-opacity="1" d="M 548.3125 1294.390625 C 473.332031 1313.839844 554.996094 1218.039062 574.476562 1190.800781 L 598.964844 1194.648438 L 568.453125 1256.929688 L 554.511719 1289.390625 L 548.3125 1294.390625 "/>
<path fill-rule="evenodd" fill="rgb(25.488281%, 14.892578%, 36.473083%)" fill-opacity="1" d="M 696.003906 1442.277344 C 714.273438 1443.925781 748.011719 1463.792969 755.394531 1493.925781 C 760.835938 1516.140625 758.949219 1551.246094 758.53125 1569.585938 C 759.589844 1584.601562 767.152344 1639.035156 747.230469 1648.742188 C 713.757812 1665.046875 707.859375 1589.175781 700.347656 1558.363281 L 693.890625 1540.460938 C 689.09375 1526.960938 650.722656 1438.199219 696.003906 1442.277344 "/>
<path fill-rule="evenodd" fill="rgb(25.488281%, 14.892578%, 36.473083%)" fill-opacity="1" d="M 747.230469 1648.742188 C 766.304688 1626.703125 787.394531 1602.648438 805.3125 1580.59375 C 811.738281 1572.679688 818.300781 1564.832031 825.15625 1557.105469 L 839.097656 1540.980469 C 838.765625 1522.953125 823.324219 1524.636719 812.496094 1527.578125 C 769.261719 1566.980469 744.996094 1567.851562 731.769531 1608.828125 L 725.082031 1617.144531 C 725.082031 1617.144531 741.582031 1629.160156 743.273438 1633.636719 C 744.96875 1638.109375 744.496094 1640.53125 744.550781 1641.894531 C 744.605469 1643.261719 747.230469 1648.742188 747.230469 1648.742188 "/>
<path fill-rule="evenodd" fill="rgb(25.488281%, 14.892578%, 36.473083%)" fill-opacity="1" d="M 668.859375 1452.640625 C 683.910156 1463.128906 703.367188 1497.109375 694.839844 1526.9375 C 688.550781 1548.929688 669.511719 1578.484375 660.0625 1594.203125 C 653.535156 1607.765625 633.117188 1658.796875 611.007812 1657.347656 C 573.851562 1654.914062 606.339844 1586.097656 615.089844 1555.613281 L 618.355469 1536.863281 C 620.882812 1522.761719 631.558594 1426.652344 668.859375 1452.640625 "/>
<path fill-rule="evenodd" fill="rgb(85.15625%, 30.200195%, 41.575623%)" fill-opacity="1" d="M 631.332031 1316.289062 C 631.253906 1316.820312 597.21875 1365.46875 614.789062 1382.589844 C 630.449219 1398.371094 641.34375 1468.382812 622.757812 1485.410156 C 653.421875 1501.101562 691.957031 1500.910156 745.691406 1469.316406 C 737.441406 1428.246094 715.765625 1433.378906 733.621094 1374.421875 C 756.988281 1297.269531 760.859375 1304.980469 697.363281 1306.128906 L 656.824219 1307.820312 L 631.652344 1312.878906 L 631.332031 1316.289062 "/>
<path fill-rule="evenodd" fill="rgb(94.921875%, 74.414062%, 59.959412%)" fill-opacity="1" d="M 664.597656 1307.5 C 664.503906 1309.359375 678.152344 1331.078125 704.246094 1306.101562 C 696.921875 1301.929688 688.070312 1297.78125 680.429688 1299.859375 C 675.789062 1300.449219 669.003906 1306.660156 664.597656 1307.5 "/>
<path fill-rule="evenodd" fill="rgb(25.488281%, 14.892578%, 36.473083%)" fill-opacity="1" d="M 593.441406 1635.003906 C 593.757812 1664.398438 593.910156 1696.675781 595.070312 1725.285156 C 595.488281 1735.546875 595.765625 1745.855469 595.757812 1756.277344 L 595.921875 1771.164062 C 607.664062 1784.144531 617.644531 1782.507812 623.570312 1772.828125 C 629.589844 1713.929688 646.675781 1692.734375 630.058594 1653.515625 L 629.570312 1642.777344 C 629.570312 1642.777344 610.011719 1645.425781 605.933594 1643.324219 C 601.855469 1641.222656 600.652344 1639.121094 599.742188 1638.15625 C 598.832031 1637.191406 593.441406 1635.003906 593.441406 1635.003906 "/>
<path fill-rule="evenodd" fill="rgb(85.15625%, 30.200195%, 41.575623%)" fill-opacity="1" d="M 789.597656 1281.910156 L 810.304688 1280.039062 C 839.339844 1290.988281 819.078125 1304.601562 795.136719 1322.308594 C 777.445312 1335.398438 757.488281 1349.621094 739.191406 1363.46875 C 736.796875 1365.28125 713.554688 1391.738281 711.226562 1393.539062 C 680.253906 1416.632812 683.8125 1367.03125 699.269531 1337.988281 C 709.9375 1317.960938 758.96875 1300.03125 789.597656 1281.910156 "/>
<path fill-rule="evenodd" fill="rgb(85.15625%, 30.200195%, 41.575623%)" fill-opacity="1" d="M 805.636719 1288.871094 C 844.238281 1334.179688 824.261719 1210.050781 818.691406 1180.808594 L 796.421875 1183.46875 C 794.417969 1232.71875 792.210938 1254.058594 788.847656 1289.859375 L 805.636719 1288.871094 "/>
<path fill-rule="evenodd" fill="rgb(5.880737%, 73.242188%, 76.951599%)" fill-opacity="1" d="M 1686.140625 839.570312 C 1674.769531 848.230469 1672.558594 864.609375 1681.21875 875.980469 L 1685.578125 881.710938 C 1694.238281 893.078125 1710.628906 895.289062 1721.988281 886.628906 L 1722 886.628906 C 1733.359375 877.96875 1735.578125 861.589844 1726.921875 850.21875 L 1722.550781 844.488281 C 1713.890625 833.121094 1697.511719 830.910156 1686.140625 839.570312 "/>
<path fill-rule="evenodd" fill="rgb(5.880737%, 73.242188%, 76.951599%)" fill-opacity="1" d="M 1736.441406 867.28125 L 1699.5 895.421875 L 1960.820312 1238.449219 L 1997.761719 1210.300781 L 1736.441406 867.28125 "/>
<path fill-rule="evenodd" fill="rgb(26.660156%, 46.679688%, 49.021912%)" fill-opacity="1" d="M 2016.808594 1273.628906 L 1997.761719 1210.300781 L 1960.820312 1238.449219 Z M 2016.808594 1273.628906 "/>
<path fill-rule="evenodd" fill="rgb(18.041992%, 31.37207%, 34.910583%)" fill-opacity="1" d="M 1689.660156 909.871094 L 1696.25 904.839844 L 1779.671875 1014.351562 L 1773.078125 1019.371094 L 1689.660156 909.871094 "/>
<path fill-rule="evenodd" fill="rgb(26.660156%, 46.679688%, 49.021912%)" fill-opacity="1" d="M 1696.25 904.839844 L 1702.851562 899.820312 L 1713.570312 913.890625 L 1706.96875 918.910156 L 1696.25 904.839844 "/>
<path fill-rule="evenodd" fill="rgb(26.660156%, 46.679688%, 49.021912%)" fill-opacity="1" d="M 1731.089844 847.03125 L 1681.398438 884.890625 L 1693.128906 900.28125 L 1742.820312 862.421875 L 1731.089844 847.03125 "/>
<path fill-rule="evenodd" fill="rgb(98.826599%, 89.0625%, 76.951599%)" fill-opacity="1" d="M 1892.300781 1060.371094 L 1895.269531 1056.878906 L 1900.148438 1056.320312 L 1904.730469 1060.960938 L 1908.738281 1064.539062 L 1910.140625 1067.96875 C 1910.140625 1067.96875 1910.101562 1074.378906 1910.121094 1075.5 C 1910.128906 1076.621094 1910.429688 1085.011719 1910.429688 1085.011719 L 1909.699219 1087.460938 L 1898.988281 1093.128906 L 1895.910156 1093.621094 L 1890.53125 1089.191406 L 1881.070312 1079.511719 L 1879.988281 1071.21875 L 1892.300781 1060.371094 "/>
<path fill-rule="evenodd" fill="rgb(18.041992%, 32.151794%, 51.756287%)" fill-opacity="1" d="M 1566.140625 1258.730469 L 1564.558594 1296.910156 C 1551.070312 1340.359375 1550.269531 1334.550781 1584.628906 1365.429688 C 1608.019531 1367.53125 1641.378906 1354.339844 1652.921875 1349.308594 L 1652.019531 1331.71875 L 1650.121094 1294.460938 L 1635.960938 1182.898438 C 1631.929688 1182.148438 1627.738281 1180.71875 1623.640625 1178.621094 L 1623.398438 1178.601562 L 1623.359375 1178.46875 L 1621.808594 1172.988281 C 1603.011719 1172.378906 1601.230469 1173.761719 1583.410156 1172.628906 C 1581.339844 1180.960938 1579.398438 1188.828125 1577.589844 1196.511719 C 1572.789062 1216.890625 1568.921875 1235.960938 1566.140625 1258.730469 "/>
<path fill-rule="evenodd" fill="rgb(9.397888%, 20.776367%, 36.863708%)" fill-opacity="1" d="M 1635.960938 1182.898438 C 1630.621094 1179.671875 1629.558594 1178.859375 1625.210938 1174.609375 C 1623.378906 1172.820312 1621.511719 1171.160156 1620.199219 1170.601562 C 1617.128906 1169.308594 1616.980469 1171.628906 1617.710938 1174.410156 C 1620.011719 1183.089844 1627.308594 1183.679688 1635.960938 1182.898438 "/>
<path fill-rule="evenodd" fill="rgb(98.826599%, 89.0625%, 76.951599%)" fill-opacity="1" d="M 1494.589844 1063.800781 L 1496.519531 1050.671875 L 1498.851562 1043.421875 L 1501.929688 1035.871094 L 1502.558594 1032.011719 L 1502.511719 1027.199219 L 1499.710938 1025.320312 L 1497.550781 1024.679688 L 1498.070312 1020.671875 L 1495.539062 1017.140625 L 1489.78125 1016.898438 L 1485.058594 1016.398438 L 1481.96875 1017.519531 C 1481.96875 1017.519531 1477.808594 1021.359375 1477.058594 1022.019531 C 1476.320312 1022.671875 1470.648438 1027.460938 1470.648438 1027.460938 L 1469.480469 1029.390625 L 1470.359375 1038.230469 L 1475.828125 1063.429688 L 1476.371094 1065.71875 C 1484.449219 1070.308594 1487.390625 1069.710938 1494.589844 1063.800781 "/>
<path fill-rule="evenodd" fill="rgb(98.826599%, 89.0625%, 76.951599%)" fill-opacity="1" d="M 1497.808594 1022.679688 L 1498.070312 1020.671875 L 1503.679688 1000.25 C 1506 988.269531 1497.839844 991.300781 1495.738281 1000.300781 L 1492.929688 1012.429688 L 1490.738281 1019.339844 L 1489.78125 1016.898438 L 1489.628906 998.820312 C 1489.539062 988.46875 1481.359375 984.609375 1481.960938 1002.441406 L 1482.171875 1008.988281 L 1482.390625 1020.621094 L 1482.78125 1024.46875 L 1486.21875 1028.519531 L 1494.289062 1029.210938 L 1497.808594 1022.679688 "/>
</svg>
